0
SECTION
2
HEADER
9
$INSUNITS
70
4
9
$ACADVER
1
AC1014
9
$HANDSEED
5
FFFF
0
ENDSEC
0
SECTION
2
TABLES
0
TABLE
2
VPORT
5
8
100
AcDbSymbolTable
0
ENDTAB
0
TABLE
2
LTYPE
5
5
100
AcDbSymbolTable
0
LTYPE
5
14
100
AcDbSymbolTableRecord
100
AcDbLinetypeTableRecord
2
BYBLOCK
70
0
0
LTYPE
5
15
100
AcDbSymbolTableRecord
100
AcDbLinetypeTableRecord
2
BYLAYER
70
0
0
ENDTAB
0
TABLE
2
LAYER
5
2
100
AcDbSymbolTable
70
2
0
LAYER
5
50
100
AcDbSymbolTableRecord
100
AcDbLayerTableRecord
2
0
70
0
6
CONTINUOUS
0
ENDTAB
0
TABLE
2
STYLE
5
3
100
AcDbSymbolTable
70
1
0
STYLE
5
11
100
AcDbSymbolTableRecord
100
AcDbTextStyleTableRecord
2
STANDARD
70
0
0
ENDTAB
0
TABLE
2
VIEW
5
6
100
AcDbSymbolTable
70
0
0
ENDTAB
0
TABLE
2
UCS
5
7
100
AcDbSymbolTable
70
0
0
ENDTAB
0
TABLE
2
APPID
5
9
100
AcDbSymbolTable
70
2
0
APPID
5
12
100
AcDbSymbolTableRecord
100
AcDbRegAppTableRecord
2
ACAD
70
0
0
ENDTAB
0
TABLE
2
DIMSTYLE
5
A
100
AcDbSymbolTable
70
1
0
ENDTAB
0
TABLE
2
BLOCK_RECORD
5
1
100
AcDbSymbolTable
70
1
0
BLOCK_RECORD
5
1F
100
AcDbSymbolTableRecord
100
AcDbBlockTableRecord
2
*MODEL_SPACE
0
BLOCK_RECORD
5
1B
100
AcDbSymbolTableRecord
100
AcDbBlockTableRecord
2
*PAPER_SPACE
0
ENDTAB
0
ENDSEC
0
SECTION
2
BLOCKS
0
BLOCK
5
20
100
AcDbEntity
100
AcDbBlockBegin
2
*MODEL_SPACE
0
ENDBLK
5
21
100
AcDbEntity
100
AcDbBlockEnd
0
BLOCK
5
1C
100
AcDbEntity
100
AcDbBlockBegin
2
*PAPER_SPACE
0
ENDBLK
5
1D
100
AcDbEntity
100
AcDbBlockEnd
0
ENDSEC
0
SECTION
2
ENTITIES
0
LWPOLYLINE
5
100
100
AcDbEntity
8
0
100
AcDbPolyline
90
4
70
1
43
0.0
10
-5.1763809020504183
20
82.681483474218624
10
-10.352761804100826
20
63.362966948437247
42
-0.26794919243112264
10
-38.637033051562724
20
91.647238195899149
10
-19.318516525781369
20
96.82361909794956
42
0.26794919243112247
0
CIRCLE
5
101
100
AcDbEntity
8
0
100
AcDbCircle
10
0
20
102
30
0
40
7.9500000000000002
210
0
220
-0
230
1
0
CIRCLE
5
102
100
AcDbEntity
8
0
100
AcDbCircle
10
-43.301270189221967
20
126.99999999999996
30
0
40
2.850000000000001
210
0
220
-0
230
1
0
CIRCLE
5
103
100
AcDbEntity
8
0
100
AcDbCircle
10
-43.301270189221924
20
76.999999999999957
30
0
40
2.850000000000001
210
0
220
-0
230
1
0
CIRCLE
5
104
100
AcDbEntity
8
0
100
AcDbCircle
10
9.1906356780634796e-16
20
51.999999999999993
30
0
40
2.8500000000000005
210
0
220
-0
230
1
0
CIRCLE
5
105
100
AcDbEntity
8
0
100
AcDbCircle
10
-1.353084311261908e-14
20
152
30
0
40
2.8500000000000005
210
0
220
-0
230
1
0
CIRCLE
5
106
100
AcDbEntity
8
0
100
AcDbCircle
10
43.301270189221917
20
127
30
0
40
2.850000000000001
210
0
220
-0
230
1
0
LWPOLYLINE
5
107
100
AcDbEntity
8
0
100
AcDbPolyline
90
4
70
1
43
0.0
10
19.318516525781369
20
96.823619097949575
10
38.637033051562724
20
91.647238195899163
42
-0.26794919243112264
10
10.352761804100831
20
63.362966948437261
10
5.1763809020504254
20
82.681483474218624
42
0.26794919243112264
0
LWPOLYLINE
5
108
100
AcDbEntity
8
0
100
AcDbPolyline
90
4
70
1
43
0.0
10
-5.1763809020504201
20
121.31851652578136
42
0.2679491924311227
10
-19.318516525781362
20
107.17638090205041
10
-38.637033051562724
20
112.35276180410082
42
-0.26794919243112275
10
-10.352761804100828
20
140.63703305156272
0
CIRCLE
5
109
100
AcDbEntity
8
0
100
AcDbCircle
10
43.301270189221924
20
77.000000000000014
30
0
40
2.850000000000001
210
0
220
-0
230
1
0
LWPOLYLINE
5
110
100
AcDbEntity
8
0
100
AcDbPolyline
90
4
70
1
43
0.0
10
5.1763809020504219
20
121.31851652578136
10
10.35276180410084
20
140.63703305156272
42
-0.26794919243112264
10
38.637033051562732
20
112.35276180410082
10
19.318516525781369
20
107.17638090205041
42
0.2679491924311227
0
CIRCLE
5
111
100
AcDbEntity
8
0
100
AcDbCircle
10
0
20
102
30
0
40
60
210
0
220
0
230
1
0
LWPOLYLINE
5
112
100
AcDbEntity
8
0
100
AcDbPolyline
90
8
70
1
43
0.0
10
2.3169406170938838
20
100.20500000000001
42
0.3504899723378237
10
2.5120169423189131
20
100.36089526854524
42
0.11163597674364507
10
2.5120169423189131
20
103.63910473145479
42
0.35048997233782364
10
2.3169406170938824
20
103.79500000000002
10
-2.3169406170938824
20
103.79500000000002
42
0.35048997233782392
10
-2.5120169423189131
20
103.63910473145479
42
0.11163597674364507
10
-2.5120169423189131
20
100.36089526854524
42
0.3504899723378242
10
-2.3169406170938833
20
100.205
0
CIRCLE
5
113
100
AcDbEntity
8
0
100
AcDbCircle
10
-5.823351512373313e-22
20
101.99999999999997
30
0
40
12.949999999999999
210
0
220
-0
230
1
0
CIRCLE
5
114
100
AcDbEntity
8
0
100
AcDbCircle
10
0
20
102
30
0
40
7.9499999999999993
210
0
220
-0
230
1
0
CIRCLE
5
115
100
AcDbEntity
8
0
100
AcDbCircle
10
0
20
102
30
0
40
12.949999999999999
210
0
220
-0
230
1
0
ARC
5
116
100
AcDbEntity
8
0
100
AcDbCircle
10
0
20
102
30
0
40
12.950000000000001
210
0
220
0
230
1
100
AcDbArc
50
-41.259960120014711
51
31.651302180283416
0
SPLINE
5
117
100
AcDbEntity
8
0
100
AcDbSpline
70
4
71
5
72
22
73
16
74
0
42
0.000000001
43
0.0000000001
44
0.0000000001
40
-1
40
-1
40
-1
40
-1
40
-1
40
-1
40
-0.93333333333333324
40
-0.86666666666666659
40
-0.79999999999999993
40
-0.73333333333333328
40
-0.66666666666666663
40
-0.59999999999999998
40
-0.53333333333333333
40
-0.46666666666666662
40
-0.39999999999999997
40
-0.33333333333333331
40
-0.30165417741819528
40
-0.30165417741819528
40
-0.30165417741819528
40
-0.30165417741819528
40
-0.30165417741819528
40
-0.30165417741819528
41
1
41
1
41
1
41
1
41
1
41
1
41
1
41
1
41
1
41
1
41
1
41
1
41
1
41
1
41
1
41
1
10
30.000000000000007
20
33.967151680125745
30
0
10
29.433453976899102
20
34.308696311708275
30
0
10
28.308068664320963
20
35.08669693650014
30
0
10
26.643113658625246
20
36.538416443074325
30
0
10
24.469731315130705
20
39.047754692390939
30
0
10
21.838828102172432
20
43.148057020437271
30
0
10
19.314558997999157
20
48.192629732445866
30
0
10
16.936905858183124
20
54.10211422522881
30
0
10
14.76769988632527
20
60.719551922809757
30
0
10
12.881287330937635
20
67.845422279849942
30
0
10
11.357360006919635
20
75.259570520401567
30
0
10
10.385646935553883
20
81.960652829072544
30
0
10
9.9340718997343291
20
87.093285162675073
30
0
10
9.7756760003006349
20
90.678148235039586
30
0
10
9.7401534301349653
20
92.784541696903901
30
0
10
9.7348410485579429
20
93.459779290948518
30
0
0
SPLINE
5
118
100
AcDbEntity
8
0
100
AcDbSpline
70
4
71
5
72
14
73
8
74
0
42
0.000000001
43
0.0000000001
44
0.0000000001
40
-0.14961217208445698
40
-0.14961217208445698
40
-0.14961217208445698
40
-0.14961217208445698
40
-0.14961217208445698
40
-0.14961217208445698
40
-0.13333333333333333
40
-0.066666666666666666
40
0
40
0
40
0
40
0
40
0
40
0
41
1
41
1
41
1
41
1
41
1
41
1
41
1
41
1
10
11.023783589162925
20
108.79549081224475
30
0
10
11.0815172011773
20
109.10369251078012
30
0
10
11.383797138014755
20
110.66831579600922
30
0
10
12.003429232443334
20
113.43749584750816
30
0
10
12.755961613391083
20
116.11041356964243
30
0
10
13.639133443423173
20
118.68741765776159
30
0
10
14.529210739779607
20
120.90840908426875
30
0
10
15.000000000000014
20
122.00000000000001
30
0
0
SPLINE
5
119
100
AcDbEntity
8
0
100
AcDbSpline
70
4
71
5
72
14
73
8
74
0
42
0.000000001
43
0.0000000001
44
0.0000000001
40
0
40
0
40
0
40
0
40
0
40
0
40
0.066666666666666666
40
0.13333333333333333
40
0.14961217208445698
40
0.14961217208445698
40
0.14961217208445698
40
0.14961217208445698
40
0.14961217208445698
40
0.14961217208445698
41
1
41
1
41
1
41
1
41
1
41
1
41
1
41
1
10
-15.000000000000014
20
122.00000000000001
30
0
10
-14.529210739779607
20
120.90840908426875
30
0
10
-13.639133443423173
20
118.68741765776159
30
0
10
-12.755961613391083
20
116.11041356964243
30
0
10
-12.003429232443334
20
113.43749584750816
30
0
10
-11.383797138014755
20
110.66831579600922
30
0
10
-11.0815172011773
20
109.10369251078012
30
0
10
-11.023783589162925
20
108.79549081224475
30
0
0
SPLINE
5
120
100
AcDbEntity
8
0
100
AcDbSpline
70
4
71
5
72
22
73
16
74
0
42
0.000000001
43
0.0000000001
44
0.0000000001
40
0.30165417741819534
40
0.30165417741819534
40
0.30165417741819534
40
0.30165417741819534
40
0.30165417741819534
40
0.30165417741819534
40
0.33333333333333331
40
0.39999999999999997
40
0.46666666666666662
40
0.53333333333333333
40
0.59999999999999998
40
0.66666666666666663
40
0.73333333333333328
40
0.79999999999999993
40
0.86666666666666659
40
0.93333333333333324
40
1
40
1
40
1
40
1
40
1
40
1
41
1
41
1
41
1
41
1
41
1
41
1
41
1
41
1
41
1
41
1
41
1
41
1
41
1
41
1
41
1
41
1
10
-9.7348410485579429
20
93.459779290948546
30
0
10
-9.7401534301349653
20
92.784541696903943
30
0
10
-9.7756760003006331
20
90.6781482350396
30
0
10
-9.9340718997343309
20
87.093285162675073
30
0
10
-10.385646935553885
20
81.960652829072558
30
0
10
-11.357360006919635
20
75.259570520401567
30
0
10
-12.881287330937635
20
67.845422279849942
30
0
10
-14.76769988632527
20
60.719551922809757
30
0
10
-16.936905858183124
20
54.10211422522881
30
0
10
-19.314558997999157
20
48.192629732445866
30
0
10
-21.838828102172432
20
43.148057020437271
30
0
10
-24.469731315130705
20
39.047754692390939
30
0
10
-26.643113658625246
20
36.538416443074325
30
0
10
-28.308068664320963
20
35.08669693650014
30
0
10
-29.433453976899102
20
34.308696311708275
30
0
10
-30.000000000000007
20
33.967151680125745
30
0
0
ARC
5
121
100
AcDbEntity
8
0
100
AcDbCircle
10
0
20
102
30
0
40
12.950000000000037
210
0
220
0
230
1
100
AcDbArc
50
148.34869781971639
51
221.25996012001457
0
LINE
5
122
100
AcDbEntity
8
0
100
AcDbLine
10
30.000000000000004
20
2.0000000000000018
30
0
11
30.000000000000007
21
33.967151680125745
31
0
0
LINE
5
123
100
AcDbEntity
8
0
100
AcDbLine
10
-30
20
2.0000000000000018
30
0
11
30.000000000000004
21
2.0000000000000018
31
0
0
LINE
5
124
100
AcDbEntity
8
0
100
AcDbLine
10
-30.000000000000004
20
33.967151680125745
30
0
11
-30
21
2.0000000000000018
31
0
0
LINE
5
125
100
AcDbEntity
8
0
100
AcDbLine
10
15.000000000000014
20
122.00000000000001
30
0
11
-15.000000000000014
21
122.00000000000001
31
0
0
CIRCLE
5
126
100
AcDbEntity
8
0
100
AcDbCircle
10
0
20
102
30
0
40
7.9499999999999993
210
0
220
-0
230
1
0
LWPOLYLINE
5
127
100
AcDbEntity
8
0
100
AcDbPolyline
90
4
70
1
43
0.0
10
38.637033051562732
20
112.35276180410082
42
0.26794919243112264
10
10.352761804100838
20
140.63703305156272
10
5.1763809020504237
20
121.31851652578136
42
-0.26794919243112264
10
19.318516525781373
20
107.17638090205041
0
CIRCLE
5
128
100
AcDbEntity
8
0
100
AcDbCircle
10
43.301270189221924
20
77.000000000000014
30
0
40
2.8500000000000014
210
0
220
-0
230
1
0
LWPOLYLINE
5
129
100
AcDbEntity
8
0
100
AcDbPolyline
90
4
70
1
43
0.0
10
-38.637033051562732
20
112.35276180410082
10
-19.318516525781373
20
107.17638090205043
42
-0.26794919243112264
10
-5.1763809020504201
20
121.31851652578136
10
-10.352761804100831
20
140.63703305156272
42
0.2679491924311227
0
LWPOLYLINE
5
130
100
AcDbEntity
8
0
100
AcDbPolyline
90
4
70
1
43
0.0
10
10.352761804100812
20
63.362966948437254
42
0.26794919243112286
10
38.637033051562732
20
91.647238195899163
10
19.318516525781376
20
96.823619097949575
42
-0.26794919243112264
10
5.1763809020504246
20
82.681483474218624
0
CIRCLE
5
131
100
AcDbEntity
8
0
100
AcDbCircle
10
43.301270189221917
20
127
30
0
40
2.8500000000000014
210
0
220
-0
230
1
0
CIRCLE
5
132
100
AcDbEntity
8
0
100
AcDbCircle
10
-1.353084311261908e-14
20
152
30
0
40
2.8500000000000005
210
0
220
-0
230
1
0
CIRCLE
5
133
100
AcDbEntity
8
0
100
AcDbCircle
10
9.1906356780634796e-16
20
51.999999999999993
30
0
40
2.8500000000000005
210
0
220
-0
230
1
0
CIRCLE
5
134
100
AcDbEntity
8
0
100
AcDbCircle
10
-43.301270189221924
20
76.999999999999957
30
0
40
2.8500000000000014
210
0
220
-0
230
1
0
CIRCLE
5
135
100
AcDbEntity
8
0
100
AcDbCircle
10
-43.301270189221967
20
126.99999999999996
30
0
40
2.8500000000000014
210
0
220
-0
230
1
0
CIRCLE
5
136
100
AcDbEntity
8
0
100
AcDbCircle
10
0
20
102
30
0
40
7.9500000000000002
210
0
220
-0
230
1
0
LWPOLYLINE
5
137
100
AcDbEntity
8
0
100
AcDbPolyline
90
4
70
1
43
0.0
10
-38.637033051562732
20
91.647238195899163
42
0.26794919243112275
10
-10.352761804100826
20
63.362966948437261
10
-5.1763809020504157
20
82.681483474218624
42
-0.26794919243112247
10
-19.318516525781369
20
96.82361909794956
0
CIRCLE
5
138
100
AcDbEntity
8
0
100
AcDbCircle
10
0
20
102
30
0
40
60
210
0
220
-0
230
1
0
CIRCLE
5
139
100
AcDbEntity
8
0
100
AcDbCircle
10
9.1906356780634796e-16
20
51.999999999999993
30
0
40
2.8500000000000005
210
0
220
-0
230
1
0
LWPOLYLINE
5
140
100
AcDbEntity
8
0
100
AcDbPolyline
90
6
70
1
43
0.0
10
-15
20
31.422649730810367
10
15
20
31.422649730810367
10
15.000000000000004
20
51.42264973081037
10
3.5000000000000009
20
58.062177826491066
42
0.2679491924311227
10
-3.5000000000000013
20
58.062177826491066
10
-15.000000000000007
20
51.422649730810363
0
CIRCLE
5
141
100
AcDbEntity
8
0
100
AcDbCircle
10
9.1906356780634796e-16
20
51.999999999999993
30
0
40
2.8500000000000005
210
0
220
-0
230
1
0
CIRCLE
5
142
100
AcDbEntity
8
0
100
AcDbCircle
10
9.1906356780634796e-16
20
51.999999999999993
30
0
40
7.0000000000000009
210
0
220
-0
230
1
0
ENDSEC
0
SECTION
2
OBJECTS
0
DICTIONARY
5
C
100
AcDbDictionary
3
ACAD_GROUP
350
D
3
ACAD_MLINESTYLE
350
17
0
DICTIONARY
5
D
100
AcDbDictionary
0
DICTIONARY
5
1A
330
C
100
AcDbDictionary
0
DICTIONARY
5
17
100
AcDbDictionary
0
ENDSEC
0
EOF
