<?xml version="1.0" encoding="UTF-8" standalone="no"?>
<svg
   viewBox="0 0 566.92912 566.92914"
   width="150mm"
   height="150mm"
   version="1.1"
   id="svg772"
   sodipodi:docname="lsr_side_support.svg"
   inkscape:version="1.2.2 (732a01da63, 2022-12-09)"
   xmlns:inkscape="http://www.inkscape.org/namespaces/inkscape"
   xmlns:sodipodi="http://sodipodi.sourceforge.net/DTD/sodipodi-0.dtd"
   xmlns="http://www.w3.org/2000/svg"
   xmlns:svg="http://www.w3.org/2000/svg">
  <sodipodi:namedview
     id="namedview774"
     pagecolor="#ffffff"
     bordercolor="#000000"
     borderopacity="0.25"
     inkscape:showpageshadow="2"
     inkscape:pageopacity="0.0"
     inkscape:pagecheckerboard="0"
     inkscape:deskcolor="#d1d1d1"
     showgrid="false"
     inkscape:zoom="0.70199216"
     inkscape:cx="397.44033"
     inkscape:cy="220.08793"
     inkscape:window-width="1920"
     inkscape:window-height="991"
     inkscape:window-x="-9"
     inkscape:window-y="-9"
     inkscape:window-maximized="1"
     inkscape:current-layer="g770"
     inkscape:document-units="mm" />
  <desc
     id="desc732">lsr_side_support.dxf - scale = 1.000000, origin = (0.000000, 0.000000), method = manual</desc>
  <defs
     id="defs746">
    <marker
       id="DistanceX"
       orient="auto"
       refX="0"
       refY="0"
       style="overflow:visible">
      <path
         d="M 3,-3 -3,3 M 0,-5 V 5"
         style="stroke:#000000;stroke-width:0.5"
         id="path734" />
    </marker>
    <pattern
       id="Hatch"
       patternUnits="userSpaceOnUse"
       width="8"
       height="8"
       x="0"
       y="0">
      <path
         d="M8 4 l-4,4"
         stroke="#000000"
         stroke-width="0.25"
         linecap="square"
         id="path737" />
      <path
         d="M6 2 l-4,4"
         stroke="#000000"
         stroke-width="0.25"
         linecap="square"
         id="path739" />
      <path
         d="M4 0 l-4,4"
         stroke="#000000"
         stroke-width="0.25"
         linecap="square"
         id="path741" />
    </pattern>
    <symbol
       id="*MODEL_SPACE" />
    <symbol
       id="*PAPER_SPACE" />
  </defs>
  <g
     inkscape:groupmode="layer"
     inkscape:label="0"
     id="g770">
    <path
       d="M 185.66469,497.7152 A 48.944882,48.944882 0 0 0 180.7931,439.7535"
       style="fill:none;stroke:#000000"
       id="path748" />
    <path
       d="m 180.7931,439.7535 c 0.40403,-51.3546 12.01899,-102.7495 24.40534,-139.4755 6.21354,-18.4234 14.44431,-38.5608 24.59009,-55.1512 3.92659,-6.4208 8.43864,-12.7988 13.51997,-18.3571 4.13243,-4.5204 8.83237,-8.7083 14.07733,-11.8702"
       style="fill:none;stroke:#000000"
       id="path750" />
    <path
       d="m 200.69291,547.622 c -3.38139,-7.8402 -6.28992,-15.8711 -8.75508,-24.0481 -2.56231,-8.4993 -4.63848,-17.1323 -6.27314,-25.8587"
       style="fill:none;stroke:#000000"
       id="path752" />
    <path
       d="m 102.33531,497.7152 c -1.63466,8.7264 -3.71083,17.3594 -6.273144,25.8587 -2.46516,8.177 -5.37369,16.2079 -8.755079,24.0481"
       style="fill:none;stroke:#000000"
       id="path754" />
    <path
       d="m 30.61417,214.8995 c 5.98565,3.6084 11.27585,8.5619 15.83912,13.8554 9.385224,10.8871 17.116691,24.8776 23.119541,37.89 10.754771,23.3132 19.91722,52.0249 26.460173,81.197 4.514526,20.1283 10.875006,53.9209 11.173896,91.9116"
       style="fill:none;stroke:#000000"
       id="path756" />
    <path
       d="m 107.2069,439.7535 a 48.944882,48.944882 0 0 0 -4.87159,57.9617"
       style="fill:none;stroke:#000000"
       id="path758" />
    <path
       d="m 174.04724,472.0315 a 30.047244,30.047244 0 0 0 -60.09448,0 30.047244,30.047244 0 0 0 60.09448,0 z"
       style="fill:none;stroke:#000000"
       id="path760" />
    <path
       style="fill:none;stroke:#000000"
       d="M 87.3071,547.62 H 200.6929"
       id="path762" />
    <path
       style="fill:none;stroke:#000000"
       d="M 30.614,94.08 V 214.9"
       id="path764" />
    <path
       style="fill:none;stroke:#000000"
       d="M 257.386,94.08 H 30.614"
       id="path766" />
    <path
       style="fill:none;stroke:#000000"
       d="M 257.386,214.9 V 94.08"
       id="path768" />
    <path
       d="m 441.79402,501.51093 a 48.944882,48.944882 0 0 0 -4.87159,-57.9617"
       style="fill:none;stroke:#000000"
       id="path748-1" />
    <path
       d="m 436.92243,443.54923 c 0.40403,-51.3546 12.01899,-102.7495 24.40534,-139.4755 6.21354,-18.4234 14.44431,-38.5608 24.59009,-55.1512 3.92659,-6.4208 8.43864,-12.7988 13.51997,-18.3571 4.13243,-4.5204 8.83237,-8.7083 14.07733,-11.8702"
       style="fill:none;stroke:#000000"
       id="path750-8" />
    <path
       d="m 456.82224,551.41773 c -3.38139,-7.8402 -6.28992,-15.8711 -8.75508,-24.0481 -2.56231,-8.4993 -4.63848,-17.1323 -6.27314,-25.8587"
       style="fill:none;stroke:#000000"
       id="path752-0" />
    <path
       d="m 358.46464,501.51093 c -1.63466,8.7264 -3.71083,17.3594 -6.27314,25.8587 -2.46516,8.177 -5.37369,16.2079 -8.75508,24.0481"
       style="fill:none;stroke:#000000"
       id="path754-9" />
    <path
       d="m 286.7435,218.69523 c 5.98565,3.6084 11.27585,8.5619 15.83912,13.8554 9.38522,10.8871 17.11669,24.8776 23.11954,37.89 10.75477,23.3132 19.91722,52.0249 26.46017,81.197 4.51453,20.1283 10.87501,53.9209 11.1739,91.9116"
       style="fill:none;stroke:#000000"
       id="path756-0" />
    <path
       d="m 363.33623,443.54923 a 48.944882,48.944882 0 0 0 -4.87159,57.9617"
       style="fill:none;stroke:#000000"
       id="path758-2" />
    <path
       d="m 430.17657,475.82723 a 30.047244,30.047244 0 0 0 -60.09448,0 30.047244,30.047244 0 0 0 60.09448,0 z"
       style="fill:none;stroke:#000000"
       id="path760-3" />
    <path
       style="fill:none;stroke:#000000"
       d="m 343.43643,551.41573 h 113.3858"
       id="path762-9" />
    <path
       style="fill:none;stroke:#000000"
       d="m 286.74333,97.87573 v 120.82"
       id="path764-2" />
    <path
       style="fill:none;stroke:#000000"
       d="m 513.51533,97.87573 h -226.772"
       id="path766-2" />
    <path
       style="fill:none;stroke:#000000"
       d="m 513.51533,218.69573 v -120.82"
       id="path768-3" />
    <path
       d="m 325.70117,49.07141 a 10.771654,10.771654 0 0 0 -21.5433,0 10.771654,10.771654 0 0 0 21.5433,0 z"
       style="fill:none;stroke:#000000"
       id="path872" />
    <path
       d="m 325.70117,49.07141 a 10.771654,10.771654 0 0 0 -21.5433,0 10.771654,10.771654 0 0 0 21.5433,0 z"
       style="fill:none;stroke:#000000"
       id="path892" />
    <path
       d="m 341.38621,49.07141 a 26.456693,26.456693 0 0 0 -52.91338,0 26.456693,26.456693 0 0 0 52.91338,0 z"
       style="fill:none;stroke:#000000"
       id="path894" />
    <path
       d="m 252.16313,48.44941 a 10.771654,10.771654 0 0 0 -21.54329,0 10.771654,10.771654 0 0 0 21.54329,0 z"
       style="fill:none;stroke:#000000"
       id="path872-4" />
    <path
       d="m 252.16313,48.44941 a 10.771654,10.771654 0 0 0 -21.54329,0 10.771654,10.771654 0 0 0 21.54329,0 z"
       style="fill:none;stroke:#000000"
       id="path892-8" />
    <path
       d="m 267.84817,48.44941 a 26.456693,26.456693 0 0 0 -52.91338,0 26.456693,26.456693 0 0 0 52.91338,0 z"
       style="fill:none;stroke:#000000"
       id="path894-0" />
    <path
       d="m 185.03031,48.33589 a 10.771654,10.771654 0 0 0 -21.5433,0 10.771654,10.771654 0 0 0 21.5433,0 z"
       style="fill:none;stroke:#000000"
       id="path872-7" />
    <path
       d="m 185.03031,48.33589 a 10.771654,10.771654 0 0 0 -21.5433,0 10.771654,10.771654 0 0 0 21.5433,0 z"
       style="fill:none;stroke:#000000"
       id="path892-5" />
    <path
       d="m 200.71535,48.33589 a 26.456693,26.456693 0 0 0 -52.91338,0 26.456693,26.456693 0 0 0 52.91338,0 z"
       style="fill:none;stroke:#000000"
       id="path894-4" />
    <path
       d="m 119.80212,48.97604 a 10.771654,10.771654 0 0 0 -21.5433,0 10.771654,10.771654 0 0 0 21.5433,0 z"
       style="fill:none;stroke:#000000"
       id="path872-47" />
    <path
       d="m 119.80212,48.97604 a 10.771654,10.771654 0 0 0 -21.5433,0 10.771654,10.771654 0 0 0 21.5433,0 z"
       style="fill:none;stroke:#000000"
       id="path892-88" />
    <path
       d="m 135.48716,48.97604 a 26.456693,26.456693 0 0 0 -52.91338,0 26.456693,26.456693 0 0 0 52.91338,0 z"
       style="fill:none;stroke:#000000"
       id="path894-8" />
    <path
       d="m 397.09405,53.15655 a 10.771654,10.771654 0 0 0 -21.5433,0 10.771654,10.771654 0 0 0 21.5433,0 z"
       style="fill:none;stroke:#000000"
       id="path872-0" />
    <path
       d="m 397.09405,53.15655 a 10.771654,10.771654 0 0 0 -21.5433,0 10.771654,10.771654 0 0 0 21.5433,0 z"
       style="fill:none;stroke:#000000"
       id="path892-3" />
    <path
       d="m 412.77909,53.15655 a 26.456693,26.456693 0 0 0 -52.91338,0 26.456693,26.456693 0 0 0 52.91338,0 z"
       style="fill:none;stroke:#000000"
       id="path894-3" />
    <path
       d="m 463.36528,51.31658 a 10.771654,10.771654 0 0 0 -21.5433,0 10.771654,10.771654 0 0 0 21.5433,0 z"
       style="fill:none;stroke:#000000"
       id="path872-43" />
    <path
       d="m 463.36528,51.31658 a 10.771654,10.771654 0 0 0 -21.5433,0 10.771654,10.771654 0 0 0 21.5433,0 z"
       style="fill:none;stroke:#000000"
       id="path892-0" />
    <path
       d="m 479.05032,51.31658 a 26.456693,26.456693 0 0 0 -52.91338,0 26.456693,26.456693 0 0 0 52.91338,0 z"
       style="fill:none;stroke:#000000"
       id="path894-88" />
    <path
       d="m 51.86353,47.62875 a 10.771654,10.771654 0 0 0 -21.5433,0 10.771654,10.771654 0 0 0 21.5433,0 z"
       style="fill:none;stroke:#000000"
       id="path872-76" />
    <path
       d="m 51.86353,47.62875 a 10.771654,10.771654 0 0 0 -21.5433,0 10.771654,10.771654 0 0 0 21.5433,0 z"
       style="fill:none;stroke:#000000"
       id="path892-885" />
    <path
       d="m 67.54857,47.62875 a 26.456693,26.456693 0 0 0 -52.91338,0 26.456693,26.456693 0 0 0 52.91338,0 z"
       style="fill:none;stroke:#000000"
       id="path894-6" />
    <path
       d="m 57.25967,480.00558 a 10.771654,10.771654 0 0 0 -21.5433,0 10.771654,10.771654 0 0 0 21.5433,0 z"
       style="fill:none;stroke:#000000"
       id="path872-1" />
    <path
       d="m 57.25967,480.00558 a 10.771654,10.771654 0 0 0 -21.5433,0 10.771654,10.771654 0 0 0 21.5433,0 z"
       style="fill:none;stroke:#000000"
       id="path892-1" />
    <path
       d="m 72.94471,480.00558 a 26.456693,26.456693 0 0 0 -52.91338,0 26.456693,26.456693 0 0 0 52.91338,0 z"
       style="fill:none;stroke:#000000"
       id="path894-69" />
    <path
       d="m 533.34481,47.78879 a 10.771654,10.771654 0 0 0 -21.5433,0 10.771654,10.771654 0 0 0 21.5433,0 z"
       style="fill:none;stroke:#000000"
       id="path872-8" />
    <path
       d="m 533.34481,47.78879 a 10.771654,10.771654 0 0 0 -21.5433,0 10.771654,10.771654 0 0 0 21.5433,0 z"
       style="fill:none;stroke:#000000"
       id="path892-2" />
    <path
       d="m 549.02985,47.78879 a 26.456693,26.456693 0 0 0 -52.91338,0 26.456693,26.456693 0 0 0 52.91338,0 z"
       style="fill:none;stroke:#000000"
       id="path894-33" />
    <path
       d="m 58.30736,376.42894 a 10.771654,10.771654 0 0 0 -21.5433,0 10.771654,10.771654 0 0 0 21.5433,0 z"
       style="fill:none;stroke:#000000"
       id="path872-9" />
    <path
       d="m 58.30736,376.42894 a 10.771654,10.771654 0 0 0 -21.5433,0 10.771654,10.771654 0 0 0 21.5433,0 z"
       style="fill:none;stroke:#000000"
       id="path892-9" />
    <path
       d="m 73.9924,376.42894 a 26.456693,26.456693 0 0 0 -52.91338,0 26.456693,26.456693 0 0 0 52.91338,0 z"
       style="fill:none;stroke:#000000"
       id="path894-5" />
    <path
       d="m 540.82463,356.94999 a 30.047244,30.047244 0 0 0 -60.09448,0 30.047244,30.047244 0 0 0 60.09448,0 z"
       style="fill:none;stroke:#000000"
       id="path866" />
    <path
       d="m 540.82463,356.94999 a 30.047244,30.047244 0 0 0 -60.09448,0 30.047244,30.047244 0 0 0 60.09448,0 z"
       style="fill:none;stroke:#000000"
       id="path888" />
    <path
       d="m 559.72227,356.94999 a 48.944882,48.944882 0 0 0 -97.88976,0 48.944882,48.944882 0 0 0 97.88976,0 z"
       style="fill:none;stroke:#000000"
       id="path890" />
    <path
       d="m 299.51363,338.6662 a 30.047244,30.047244 0 0 0 -60.09448,0 30.047244,30.047244 0 0 0 60.09448,0 z"
       style="fill:none;stroke:#000000"
       id="path866-6" />
    <path
       d="m 299.51363,338.6662 a 30.047244,30.047244 0 0 0 -60.09448,0 30.047244,30.047244 0 0 0 60.09448,0 z"
       style="fill:none;stroke:#000000"
       id="path888-1" />
    <path
       d="m 318.41127,338.6662 a 48.944882,48.944882 0 0 0 -97.88976,0 48.944882,48.944882 0 0 0 97.88976,0 z"
       style="fill:none;stroke:#000000"
       id="path890-8" />
    <path
       d="m 539.63505,477.71389 a 30.047244,30.047244 0 0 0 -60.09448,0 30.047244,30.047244 0 0 0 60.09448,0 z"
       style="fill:none;stroke:#000000"
       id="path866-1" />
    <path
       d="m 539.63505,477.71389 a 30.047244,30.047244 0 0 0 -60.09448,0 30.047244,30.047244 0 0 0 60.09448,0 z"
       style="fill:none;stroke:#000000"
       id="path888-9" />
    <path
       d="m 558.53269,477.71389 a 48.944882,48.944882 0 0 0 -97.88976,0 48.944882,48.944882 0 0 0 97.88976,0 z"
       style="fill:none;stroke:#000000"
       id="path890-4" />
    <path
       d="m 297.87464,465.44824 a 30.047244,30.047244 0 0 0 -60.09448,0 30.047244,30.047244 0 0 0 60.09448,0 z"
       style="fill:none;stroke:#000000"
       id="path866-14" />
    <path
       d="m 297.87464,465.44824 a 30.047244,30.047244 0 0 0 -60.09448,0 30.047244,30.047244 0 0 0 60.09448,0 z"
       style="fill:none;stroke:#000000"
       id="path888-0" />
    <path
       d="m 316.77228,465.44824 a 48.944882,48.944882 0 0 0 -97.88976,0 48.944882,48.944882 0 0 0 97.88976,0 z"
       style="fill:none;stroke:#000000"
       id="path890-0" />
  </g>
</svg>
