999
"DXF R12 Output" (www.mydxf.blogspot.com)
 0 
SECTION
 2 
HEADER
 9 
$ACADVER
 1 
AC1009
 9 
$EXTMIN
 10 
 0 
 20 
 0 
 9 
$EXTMAX
 10 
 8.5 
 20 
 11 
 0 
ENDSEC
 0 
SECTION
 2 
ENTITIES
0
LINE
8
Layer 1
10
0.793749
20
150.794000
11
-0.793749
21
149.206000
0
LINE
8
Layer 1
10
0.000000
20
151.323000
11
0.000000
21
148.677000
0
LINE
8
Layer 1
10
2.116660
20
148.942000
11
1.058330
21
147.883670
0
LINE
8
Layer 1
10
1.587500
20
149.471000
11
0.529170
21
148.412670
0
LINE
8
Layer 1
10
1.058330
20
150.000000
11
0.000000
21
148.941670
0
LINE
8
0
10
112.720000
20
86.002800
11
111.944491
21
88.554572
0
LINE
8
0
10
111.944491
20
88.554572
11
111.008920
21
91.029573
0
LINE
8
0
10
111.008920
20
91.029573
11
109.919236
21
93.421853
0
LINE
8
0
10
109.919236
20
93.421853
11
108.681388
21
95.725464
0
LINE
8
0
10
108.681388
20
95.725464
11
107.301326
21
97.934455
0
LINE
8
0
10
107.301326
20
97.934455
11
105.785000
21
100.042878
0
LINE
8
0
10
105.785000
20
100.042878
11
104.138357
21
102.044784
0
LINE
8
0
10
104.138357
20
102.044784
11
102.367349
21
103.934222
0
LINE
8
0
10
102.367349
20
103.934222
11
100.477923
21
105.705244
0
LINE
8
0
10
100.477923
20
105.705244
11
98.476029
21
107.351900
0
LINE
8
0
10
98.476029
20
107.351900
11
96.367617
21
108.868242
0
LINE
8
0
10
96.367617
20
108.868242
11
94.158635
21
110.248319
0
LINE
8
0
10
94.158635
20
110.248319
11
91.855033
21
111.486183
0
LINE
8
0
10
91.855033
20
111.486183
11
89.462761
21
112.575884
0
LINE
8
0
10
89.462761
20
112.575884
11
86.987766
21
113.511473
0
LINE
8
0
10
86.987766
20
113.511473
11
84.436000
21
114.287000
0
LINE
8
0
10
84.436000
20
114.287000
11
79.259620
21
94.968500
0
LINE
8
0
10
79.259620
20
94.968500
11
81.773013
21
94.112949
0
LINE
8
0
10
81.773013
20
94.112949
11
84.120963
21
92.949172
0
LINE
8
0
10
84.120963
20
92.949172
11
86.279674
21
91.500965
0
LINE
8
0
10
86.279674
20
91.500965
11
88.225347
21
89.792127
0
LINE
8
0
10
88.225347
20
89.792127
11
89.934185
21
87.846454
0
LINE
8
0
10
89.934185
20
87.846454
11
91.382392
21
85.687743
0
LINE
8
0
10
91.382392
20
85.687743
11
92.546169
21
83.339793
0
LINE
8
0
10
92.546169
20
83.339793
11
93.401720
21
80.826400
0
LINE
8
0
10
93.401720
20
80.826400
11
112.720000
21
86.002800
0
LINE
8
0
10
120.234000
20
50.650100
11
120.008498
21
51.757734
0
LINE
8
0
10
120.008498
20
51.757734
11
119.397371
21
52.661902
0
LINE
8
0
10
119.397371
20
52.661902
11
118.492059
21
53.271335
0
LINE
8
0
10
118.492059
20
53.271335
11
117.384005
21
53.494761
0
LINE
8
0
10
117.384005
20
53.494761
11
116.275951
21
53.271335
0
LINE
8
0
10
116.275951
20
53.271335
11
115.370639
21
52.661902
0
LINE
8
0
10
115.370639
20
52.661902
11
114.759512
21
51.757734
0
LINE
8
0
10
114.759512
20
51.757734
11
114.534010
21
50.650100
0
LINE
8
0
10
114.534010
20
50.650100
11
114.759512
21
49.542466
0
LINE
8
0
10
114.759512
20
49.542466
11
115.370639
21
48.638298
0
LINE
8
0
10
115.370639
20
48.638298
11
116.275951
21
48.028865
0
LINE
8
0
10
116.275951
20
48.028865
11
117.384005
21
47.805439
0
LINE
8
0
10
117.384005
20
47.805439
11
118.492059
21
48.028865
0
LINE
8
0
10
118.492059
20
48.028865
11
119.397371
21
48.638298
0
LINE
8
0
10
119.397371
20
48.638298
11
120.008498
21
49.542466
0
LINE
8
0
10
120.008498
20
49.542466
11
120.234000
21
50.650100
0
LINE
8
0
10
120.234000
20
50.650100
11
120.234000
21
50.650100
0
LINE
8
0
10
35.446300
20
86.002800
11
54.764800
21
80.826420
0
LINE
8
0
10
54.764800
20
80.826420
11
55.620351
21
83.339813
0
LINE
8
0
10
55.620351
20
83.339813
11
56.784128
21
85.687763
0
LINE
8
0
10
56.784128
20
85.687763
11
58.232335
21
87.846474
0
LINE
8
0
10
58.232335
20
87.846474
11
59.941173
21
89.792147
0
LINE
8
0
10
59.941173
20
89.792147
11
61.886846
21
91.500985
0
LINE
8
0
10
61.886846
20
91.500985
11
64.045557
21
92.949192
0
LINE
8
0
10
64.045557
20
92.949192
11
66.393507
21
94.112969
0
LINE
8
0
10
66.393507
20
94.112969
11
68.906900
21
94.968520
0
LINE
8
0
10
68.906900
20
94.968520
11
63.730500
21
114.287000
0
LINE
8
0
10
63.730500
20
114.287000
11
61.178719
21
113.511483
0
LINE
8
0
10
61.178719
20
113.511483
11
58.703710
21
112.575904
0
LINE
8
0
10
58.703710
20
112.575904
11
56.311423
21
111.486210
0
LINE
8
0
10
56.311423
20
111.486210
11
54.007806
21
110.248353
0
LINE
8
0
10
54.007806
20
110.248353
11
51.798810
21
108.868280
0
LINE
8
0
10
51.798810
20
108.868280
11
49.690383
21
107.351941
0
LINE
8
0
10
49.690383
20
107.351941
11
47.688475
21
105.705286
0
LINE
8
0
10
47.688475
20
105.705286
11
45.799036
21
103.934264
0
LINE
8
0
10
45.799036
20
103.934264
11
44.028014
21
102.044825
0
LINE
8
0
10
44.028014
20
102.044825
11
42.381359
21
100.042917
0
LINE
8
0
10
42.381359
20
100.042917
11
40.865020
21
97.934490
0
LINE
8
0
10
40.865020
20
97.934490
11
39.484947
21
95.725494
0
LINE
8
0
10
39.484947
20
95.725494
11
38.247090
21
93.421877
0
LINE
8
0
10
38.247090
20
93.421877
11
37.157396
21
91.029590
0
LINE
8
0
10
37.157396
20
91.029590
11
36.221817
21
88.554581
0
LINE
8
0
10
36.221817
20
88.554581
11
35.446300
21
86.002800
0
LINE
8
0
10
35.446300
20
86.002800
11
35.446300
21
86.002800
0
LINE
8
0
10
84.436000
20
37.013100
11
86.987766
21
37.788627
0
LINE
8
0
10
86.987766
20
37.788627
11
89.462761
21
38.724216
0
LINE
8
0
10
89.462761
20
38.724216
11
91.855033
21
39.813917
0
LINE
8
0
10
91.855033
20
39.813917
11
94.158635
21
41.051781
0
LINE
8
0
10
94.158635
20
41.051781
11
96.367617
21
42.431858
0
LINE
8
0
10
96.367617
20
42.431858
11
98.476029
21
43.948200
0
LINE
8
0
10
98.476029
20
43.948200
11
100.477923
21
45.594856
0
LINE
8
0
10
100.477923
20
45.594856
11
102.367349
21
47.365878
0
LINE
8
0
10
102.367349
20
47.365878
11
104.138357
21
49.255316
0
LINE
8
0
10
104.138357
20
49.255316
11
105.785000
21
51.257222
0
LINE
8
0
10
105.785000
20
51.257222
11
107.301326
21
53.365645
0
LINE
8
0
10
107.301326
20
53.365645
11
108.681388
21
55.574636
0
LINE
8
0
10
108.681388
20
55.574636
11
109.919236
21
57.878247
0
LINE
8
0
10
109.919236
20
57.878247
11
111.008920
21
60.270527
0
LINE
8
0
10
111.008920
20
60.270527
11
111.944491
21
62.745528
0
LINE
8
0
10
111.944491
20
62.745528
11
112.720000
21
65.297300
0
LINE
8
0
10
112.720000
20
65.297300
11
93.401500
21
70.473670
0
LINE
8
0
10
93.401500
20
70.473670
11
92.545949
21
67.960277
0
LINE
8
0
10
92.545949
20
67.960277
11
91.382172
21
65.612327
0
LINE
8
0
10
91.382172
20
65.612327
11
89.933965
21
63.453616
0
LINE
8
0
10
89.933965
20
63.453616
11
88.225127
21
61.507943
0
LINE
8
0
10
88.225127
20
61.507943
11
86.279454
21
59.799105
0
LINE
8
0
10
86.279454
20
59.799105
11
84.120743
21
58.350898
0
LINE
8
0
10
84.120743
20
58.350898
11
81.772793
21
57.187121
0
LINE
8
0
10
81.772793
20
57.187121
11
79.259400
21
56.331570
0
LINE
8
0
10
79.259400
20
56.331570
11
84.436000
21
37.013100
0
LINE
8
0
10
120.234000
20
100.650000
11
120.008498
21
101.757634
0
LINE
8
0
10
120.008498
20
101.757634
11
119.397371
21
102.661802
0
LINE
8
0
10
119.397371
20
102.661802
11
118.492059
21
103.271235
0
LINE
8
0
10
118.492059
20
103.271235
11
117.384005
21
103.494661
0
LINE
8
0
10
117.384005
20
103.494661
11
116.275951
21
103.271235
0
LINE
8
0
10
116.275951
20
103.271235
11
115.370639
21
102.661802
0
LINE
8
0
10
115.370639
20
102.661802
11
114.759512
21
101.757634
0
LINE
8
0
10
114.759512
20
101.757634
11
114.534010
21
100.650000
0
LINE
8
0
10
114.534010
20
100.650000
11
114.759512
21
99.542366
0
LINE
8
0
10
114.759512
20
99.542366
11
115.370639
21
98.638198
0
LINE
8
0
10
115.370639
20
98.638198
11
116.275951
21
98.028765
0
LINE
8
0
10
116.275951
20
98.028765
11
117.384005
21
97.805339
0
LINE
8
0
10
117.384005
20
97.805339
11
118.492059
21
98.028765
0
LINE
8
0
10
118.492059
20
98.028765
11
119.397371
21
98.638198
0
LINE
8
0
10
119.397371
20
98.638198
11
120.008498
21
99.542366
0
LINE
8
0
10
120.008498
20
99.542366
11
120.234000
21
100.650000
0
LINE
8
0
10
120.234000
20
100.650000
11
120.234000
21
100.650000
0
LINE
8
0
10
76.933200
20
125.650000
11
76.707698
21
126.757634
0
LINE
8
0
10
76.707698
20
126.757634
11
76.096571
21
127.661802
0
LINE
8
0
10
76.096571
20
127.661802
11
75.191259
21
128.271235
0
LINE
8
0
10
75.191259
20
128.271235
11
74.083205
21
128.494661
0
LINE
8
0
10
74.083205
20
128.494661
11
72.975151
21
128.271235
0
LINE
8
0
10
72.975151
20
128.271235
11
72.069839
21
127.661802
0
LINE
8
0
10
72.069839
20
127.661802
11
71.458712
21
126.757634
0
LINE
8
0
10
71.458712
20
126.757634
11
71.233210
21
125.650000
0
LINE
8
0
10
71.233210
20
125.650000
11
71.458712
21
124.542366
0
LINE
8
0
10
71.458712
20
124.542366
11
72.069839
21
123.638198
0
LINE
8
0
10
72.069839
20
123.638198
11
72.975151
21
123.028765
0
LINE
8
0
10
72.975151
20
123.028765
11
74.083205
21
122.805339
0
LINE
8
0
10
74.083205
20
122.805339
11
75.191259
21
123.028765
0
LINE
8
0
10
75.191259
20
123.028765
11
76.096571
21
123.638198
0
LINE
8
0
10
76.096571
20
123.638198
11
76.707698
21
124.542366
0
LINE
8
0
10
76.707698
20
124.542366
11
76.933200
21
125.650000
0
LINE
8
0
10
76.933200
20
125.650000
11
76.933200
21
125.650000
0
LINE
8
0
10
76.933200
20
25.650200
11
76.707698
21
26.757834
0
LINE
8
0
10
76.707698
20
26.757834
11
76.096571
21
27.662002
0
LINE
8
0
10
76.096571
20
27.662002
11
75.191259
21
28.271435
0
LINE
8
0
10
75.191259
20
28.271435
11
74.083205
21
28.494861
0
LINE
8
0
10
74.083205
20
28.494861
11
72.975151
21
28.271435
0
LINE
8
0
10
72.975151
20
28.271435
11
72.069839
21
27.662002
0
LINE
8
0
10
72.069839
20
27.662002
11
71.458712
21
26.757834
0
LINE
8
0
10
71.458712
20
26.757834
11
71.233210
21
25.650200
0
LINE
8
0
10
71.233210
20
25.650200
11
71.458712
21
24.542566
0
LINE
8
0
10
71.458712
20
24.542566
11
72.069839
21
23.638398
0
LINE
8
0
10
72.069839
20
23.638398
11
72.975151
21
23.028965
0
LINE
8
0
10
72.975151
20
23.028965
11
74.083205
21
22.805539
0
LINE
8
0
10
74.083205
20
22.805539
11
75.191259
21
23.028965
0
LINE
8
0
10
75.191259
20
23.028965
11
76.096571
21
23.638398
0
LINE
8
0
10
76.096571
20
23.638398
11
76.707698
21
24.542566
0
LINE
8
0
10
76.707698
20
24.542566
11
76.933200
21
25.650200
0
LINE
8
0
10
76.933200
20
25.650200
11
76.933200
21
25.650200
0
LINE
8
0
10
33.632000
20
50.650100
11
33.406498
21
51.757734
0
LINE
8
0
10
33.406498
20
51.757734
11
32.795371
21
52.661902
0
LINE
8
0
10
32.795371
20
52.661902
11
31.890059
21
53.271335
0
LINE
8
0
10
31.890059
20
53.271335
11
30.782005
21
53.494761
0
LINE
8
0
10
30.782005
20
53.494761
11
29.673951
21
53.271335
0
LINE
8
0
10
29.673951
20
53.271335
11
28.768639
21
52.661902
0
LINE
8
0
10
28.768639
20
52.661902
11
28.157512
21
51.757734
0
LINE
8
0
10
28.157512
20
51.757734
11
27.932010
21
50.650100
0
LINE
8
0
10
27.932010
20
50.650100
11
28.157512
21
49.542466
0
LINE
8
0
10
28.157512
20
49.542466
11
28.768639
21
48.638298
0
LINE
8
0
10
28.768639
20
48.638298
11
29.673951
21
48.028865
0
LINE
8
0
10
29.673951
20
48.028865
11
30.782005
21
47.805439
0
LINE
8
0
10
30.782005
20
47.805439
11
31.890059
21
48.028865
0
LINE
8
0
10
31.890059
20
48.028865
11
32.795371
21
48.638298
0
LINE
8
0
10
32.795371
20
48.638298
11
33.406498
21
49.542466
0
LINE
8
0
10
33.406498
20
49.542466
11
33.632000
21
50.650100
0
LINE
8
0
10
33.632000
20
50.650100
11
33.632000
21
50.650100
0
LINE
8
0
10
33.632000
20
100.650000
11
33.406498
21
101.757634
0
LINE
8
0
10
33.406498
20
101.757634
11
32.795371
21
102.661802
0
LINE
8
0
10
32.795371
20
102.661802
11
31.890059
21
103.271235
0
LINE
8
0
10
31.890059
20
103.271235
11
30.782005
21
103.494661
0
LINE
8
0
10
30.782005
20
103.494661
11
29.673951
21
103.271235
0
LINE
8
0
10
29.673951
20
103.271235
11
28.768639
21
102.661802
0
LINE
8
0
10
28.768639
20
102.661802
11
28.157512
21
101.757634
0
LINE
8
0
10
28.157512
20
101.757634
11
27.932010
21
100.650000
0
LINE
8
0
10
27.932010
20
100.650000
11
28.157512
21
99.542366
0
LINE
8
0
10
28.157512
20
99.542366
11
28.768639
21
98.638198
0
LINE
8
0
10
28.768639
20
98.638198
11
29.673951
21
98.028765
0
LINE
8
0
10
29.673951
20
98.028765
11
30.782005
21
97.805339
0
LINE
8
0
10
30.782005
20
97.805339
11
31.890059
21
98.028765
0
LINE
8
0
10
31.890059
20
98.028765
11
32.795371
21
98.638198
0
LINE
8
0
10
32.795371
20
98.638198
11
33.406498
21
99.542366
0
LINE
8
0
10
33.406498
20
99.542366
11
33.632000
21
100.650000
0
LINE
8
0
10
33.632000
20
100.650000
11
33.632000
21
100.650000
0
LINE
8
0
10
82.033200
20
75.650100
11
81.758002
21
77.724393
0
LINE
8
0
10
81.758002
20
77.724393
11
80.968095
21
79.625095
0
LINE
8
0
10
80.968095
20
79.625095
11
79.716989
21
81.259523
0
LINE
8
0
10
79.716989
20
81.259523
11
78.058195
21
82.534993
0
LINE
8
0
10
78.058195
20
82.534993
11
76.124208
21
83.333816
0
LINE
8
0
10
76.124208
20
83.333816
11
74.083200
21
83.600090
0
LINE
8
0
10
74.083200
20
83.600090
11
72.042192
21
83.333816
0
LINE
8
0
10
72.042192
20
83.333816
11
70.108205
21
82.534993
0
LINE
8
0
10
70.108205
20
82.534993
11
68.449411
21
81.259523
0
LINE
8
0
10
68.449411
20
81.259523
11
67.198307
21
79.625095
0
LINE
8
0
10
67.198307
20
79.625095
11
66.408403
21
77.724393
0
LINE
8
0
10
66.408403
20
77.724393
11
66.133210
21
75.650100
0
LINE
8
0
10
66.133210
20
75.650100
11
66.408406
21
73.575807
0
LINE
8
0
10
66.408406
20
73.575807
11
67.198311
21
71.675105
0
LINE
8
0
10
67.198311
20
71.675105
11
68.449416
21
70.040677
0
LINE
8
0
10
68.449416
20
70.040677
11
70.108210
21
68.765207
0
LINE
8
0
10
70.108210
20
68.765207
11
72.042197
21
67.966384
0
LINE
8
0
10
72.042197
20
67.966384
11
74.083205
21
67.700110
0
LINE
8
0
10
74.083205
20
67.700110
11
76.124213
21
67.966384
0
LINE
8
0
10
76.124213
20
67.966384
11
78.058200
21
68.765207
0
LINE
8
0
10
78.058200
20
68.765207
11
79.716994
21
70.040677
0
LINE
8
0
10
79.716994
20
70.040677
11
80.968098
21
71.675105
0
LINE
8
0
10
80.968098
20
71.675105
11
81.758002
21
73.575807
0
LINE
8
0
10
81.758002
20
73.575807
11
82.033195
21
75.650100
0
LINE
8
0
10
82.033195
20
75.650100
11
82.033200
21
75.650100
0
LINE
8
0
10
35.446300
20
65.297300
11
36.221817
21
62.745519
0
LINE
8
0
10
36.221817
20
62.745519
11
37.157396
21
60.270510
0
LINE
8
0
10
37.157396
20
60.270510
11
38.247090
21
57.878223
0
LINE
8
0
10
38.247090
20
57.878223
11
39.484947
21
55.574606
0
LINE
8
0
10
39.484947
20
55.574606
11
40.865020
21
53.365610
0
LINE
8
0
10
40.865020
20
53.365610
11
42.381359
21
51.257183
0
LINE
8
0
10
42.381359
20
51.257183
11
44.028014
21
49.255275
0
LINE
8
0
10
44.028014
20
49.255275
11
45.799036
21
47.365836
0
LINE
8
0
10
45.799036
20
47.365836
11
47.688475
21
45.594814
0
LINE
8
0
10
47.688475
20
45.594814
11
49.690383
21
43.948159
0
LINE
8
0
10
49.690383
20
43.948159
11
51.798810
21
42.431820
0
LINE
8
0
10
51.798810
20
42.431820
11
54.007806
21
41.051747
0
LINE
8
0
10
54.007806
20
41.051747
11
56.311423
21
39.813890
0
LINE
8
0
10
56.311423
20
39.813890
11
58.703710
21
38.724196
0
LINE
8
0
10
58.703710
20
38.724196
11
61.178719
21
37.788617
0
LINE
8
0
10
61.178719
20
37.788617
11
63.730500
21
37.013100
0
LINE
8
0
10
63.730500
20
37.013100
11
68.906880
21
56.331600
0
LINE
8
0
10
68.906880
20
56.331600
11
66.393487
21
57.187151
0
LINE
8
0
10
66.393487
20
57.187151
11
64.045537
21
58.350928
0
LINE
8
0
10
64.045537
20
58.350928
11
61.886826
21
59.799135
0
LINE
8
0
10
61.886826
20
59.799135
11
59.941153
21
61.507973
0
LINE
8
0
10
59.941153
20
61.507973
11
58.232315
21
63.453646
0
LINE
8
0
10
58.232315
20
63.453646
11
56.784108
21
65.612357
0
LINE
8
0
10
56.784108
20
65.612357
11
55.620331
21
67.960307
0
LINE
8
0
10
55.620331
20
67.960307
11
54.764780
21
70.473700
0
LINE
8
0
10
54.764780
20
70.473700
11
35.446300
21
65.297300
0
LINE
8
0
10
134.083000
20
75.650100
11
133.950019
21
79.648428
0
LINE
8
0
10
133.950019
20
79.648428
11
133.555322
21
83.597662
0
LINE
8
0
10
133.555322
20
83.597662
11
132.905218
21
87.486874
0
LINE
8
0
10
132.905218
20
87.486874
11
132.006017
21
91.305133
0
LINE
8
0
10
132.006017
20
91.305133
11
130.864030
21
95.041510
0
LINE
8
0
10
130.864030
20
95.041510
11
129.485566
21
98.685075
0
LINE
8
0
10
129.485566
20
98.685075
11
127.876936
21
102.224898
0
LINE
8
0
10
127.876936
20
102.224898
11
126.044450
21
105.650050
0
LINE
8
0
10
126.044450
20
105.650050
11
123.994418
21
108.949601
0
LINE
8
0
10
123.994418
20
108.949601
11
121.733150
21
112.112621
0
LINE
8
0
10
121.733150
20
112.112621
11
119.266955
21
115.128181
0
LINE
8
0
10
119.266955
20
115.128181
11
116.602145
21
117.985351
0
LINE
8
0
10
116.602145
20
117.985351
11
113.745030
21
120.673202
0
LINE
8
0
10
113.745030
20
120.673202
11
110.701919
21
123.180803
0
LINE
8
0
10
110.701919
20
123.180803
11
107.479122
21
125.497224
0
LINE
8
0
10
107.479122
20
125.497224
11
104.082950
21
127.611538
0
LINE
8
0
10
104.082950
20
127.611538
11
100.553815
21
129.495552
0
LINE
8
0
10
100.553815
20
129.495552
11
96.936337
21
131.128365
0
LINE
8
0
10
96.936337
20
131.128365
11
93.243135
21
132.509976
0
LINE
8
0
10
93.243135
20
132.509976
11
89.486831
21
133.640384
0
LINE
8
0
10
89.486831
20
133.640384
11
85.680045
21
134.519591
0
LINE
8
0
10
85.680045
20
134.519591
11
81.835398
21
135.147596
0
LINE
8
0
10
81.835398
20
135.147596
11
77.965509
21
135.524399
0
LINE
8
0
10
77.965509
20
135.524399
11
74.083000
21
135.650000
0
LINE
8
0
10
74.083000
20
135.650000
11
70.200491
21
135.524399
0
LINE
8
0
10
70.200491
20
135.524399
11
66.330602
21
135.147596
0
LINE
8
0
10
66.330602
20
135.147596
11
62.485955
21
134.519591
0
LINE
8
0
10
62.485955
20
134.519591
11
58.679169
21
133.640384
0
LINE
8
0
10
58.679169
20
133.640384
11
54.922865
21
132.509976
0
LINE
8
0
10
54.922865
20
132.509976
11
51.229663
21
131.128365
0
LINE
8
0
10
51.229663
20
131.128365
11
47.612185
21
129.495552
0
LINE
8
0
10
47.612185
20
129.495552
11
44.083050
21
127.611538
0
LINE
8
0
10
44.083050
20
127.611538
11
40.686878
21
125.497224
0
LINE
8
0
10
40.686878
20
125.497224
11
37.464082
21
123.180803
0
LINE
8
0
10
37.464082
20
123.180803
11
34.420971
21
120.673202
0
LINE
8
0
10
34.420971
20
120.673202
11
31.563856
21
117.985351
0
LINE
8
0
10
31.563856
20
117.985351
11
28.899048
21
115.128181
0
LINE
8
0
10
28.899048
20
115.128181
11
26.432856
21
112.112621
0
LINE
8
0
10
26.432856
20
112.112621
11
24.171591
21
108.949601
0
LINE
8
0
10
24.171591
20
108.949601
11
22.121562
21
105.650050
0
LINE
8
0
10
22.121562
20
105.650050
11
20.289081
21
102.224898
0
LINE
8
0
10
20.289081
20
102.224898
11
18.680458
21
98.685075
0
LINE
8
0
10
18.680458
20
98.685075
11
17.302003
21
95.041510
0
LINE
8
0
10
17.302003
20
95.041510
11
16.160025
21
91.305133
0
LINE
8
0
10
16.160025
20
91.305133
11
15.260836
21
87.486874
0
LINE
8
0
10
15.260836
20
87.486874
11
14.610745
21
83.597662
0
LINE
8
0
10
14.610745
20
83.597662
11
14.216063
21
79.648428
0
LINE
8
0
10
14.216063
20
79.648428
11
14.083100
21
75.650100
0
LINE
8
0
10
14.083100
20
75.650100
11
14.216072
21
71.651772
0
LINE
8
0
10
14.216072
20
71.651772
11
14.610761
21
67.702538
0
LINE
8
0
10
14.610761
20
67.702538
11
15.260859
21
63.813326
0
LINE
8
0
10
15.260859
20
63.813326
11
16.160054
21
59.995067
0
LINE
8
0
10
16.160054
20
59.995067
11
17.302036
21
56.258690
0
LINE
8
0
10
17.302036
20
56.258690
11
18.680496
21
52.615125
0
LINE
8
0
10
18.680496
20
52.615125
11
20.289123
21
49.075302
0
LINE
8
0
10
20.289123
20
49.075302
11
22.121606
21
45.650150
0
LINE
8
0
10
22.121606
20
45.650150
11
24.171636
21
42.350599
0
LINE
8
0
10
24.171636
20
42.350599
11
26.432903
21
39.187579
0
LINE
8
0
10
26.432903
20
39.187579
11
28.899096
21
36.172019
0
LINE
8
0
10
28.899096
20
36.172019
11
31.563905
21
33.314849
0
LINE
8
0
10
31.563905
20
33.314849
11
34.421020
21
30.626998
0
LINE
8
0
10
34.421020
20
30.626998
11
37.464131
21
28.119397
0
LINE
8
0
10
37.464131
20
28.119397
11
40.686928
21
25.802976
0
LINE
8
0
10
40.686928
20
25.802976
11
44.083100
21
23.688662
0
LINE
8
0
10
44.083100
20
23.688662
11
47.612235
21
21.804648
0
LINE
8
0
10
47.612235
20
21.804648
11
51.229713
21
20.171835
0
LINE
8
0
10
51.229713
20
20.171835
11
54.922915
21
18.790224
0
LINE
8
0
10
54.922915
20
18.790224
11
58.679219
21
17.659816
0
LINE
8
0
10
58.679219
20
17.659816
11
62.486005
21
16.780609
0
LINE
8
0
10
62.486005
20
16.780609
11
66.330652
21
16.152604
0
LINE
8
0
10
66.330652
20
16.152604
11
70.200541
21
15.775801
0
LINE
8
0
10
70.200541
20
15.775801
11
74.083050
21
15.650200
0
LINE
8
0
10
74.083050
20
15.650200
11
77.965559
21
15.775801
0
LINE
8
0
10
77.965559
20
15.775801
11
81.835448
21
16.152604
0
LINE
8
0
10
81.835448
20
16.152604
11
85.680095
21
16.780609
0
LINE
8
0
10
85.680095
20
16.780609
11
89.486881
21
17.659816
0
LINE
8
0
10
89.486881
20
17.659816
11
93.243185
21
18.790224
0
LINE
8
0
10
93.243185
20
18.790224
11
96.936387
21
20.171835
0
LINE
8
0
10
96.936387
20
20.171835
11
100.553865
21
21.804648
0
LINE
8
0
10
100.553865
20
21.804648
11
104.083000
21
23.688662
0
LINE
8
0
10
104.083000
20
23.688662
11
107.479172
21
25.802976
0
LINE
8
0
10
107.479172
20
25.802976
11
110.701968
21
28.119397
0
LINE
8
0
10
110.701968
20
28.119397
11
113.745079
21
30.626998
0
LINE
8
0
10
113.745079
20
30.626998
11
116.602194
21
33.314849
0
LINE
8
0
10
116.602194
20
33.314849
11
119.267002
21
36.172019
0
LINE
8
0
10
119.267002
20
36.172019
11
121.733194
21
39.187579
0
LINE
8
0
10
121.733194
20
39.187579
11
123.994459
21
42.350599
0
LINE
8
0
10
123.994459
20
42.350599
11
126.044488
21
45.650150
0
LINE
8
0
10
126.044488
20
45.650150
11
127.876969
21
49.075302
0
LINE
8
0
10
127.876969
20
49.075302
11
129.485592
21
52.615125
0
LINE
8
0
10
129.485592
20
52.615125
11
130.864047
21
56.258690
0
LINE
8
0
10
130.864047
20
56.258690
11
132.006025
21
59.995067
0
LINE
8
0
10
132.006025
20
59.995067
11
132.905214
21
63.813326
0
LINE
8
0
10
132.905214
20
63.813326
11
133.555305
21
67.702538
0
LINE
8
0
10
133.555305
20
67.702538
11
133.949987
21
71.651772
0
LINE
8
0
10
133.949987
20
71.651772
11
134.082950
21
75.650100
0
LINE
8
0
10
134.082950
20
75.650100
11
134.083000
21
75.650100
 0 
ENDSEC
 0 
EOF