999
"DXF R12 Output" (www.mydxf.blogspot.com)
 0 
SECTION
 2 
HEADER
 9 
$ACADVER
 1 
AC1009
 9 
$EXTMIN
 10 
 0 
 20 
 0 
 9 
$EXTMAX
 10 
 8.5 
 20 
 11 
 0 
ENDSEC
 0 
SECTION
 2 
ENTITIES
0
LINE
8
Layer 1
10
0.793749
20
150.794000
11
-0.793749
21
149.206000
0
LINE
8
Layer 1
10
0.000000
20
151.323000
11
0.000000
21
148.677000
0
LINE
8
Layer 1
10
2.116660
20
148.942000
11
1.058330
21
147.883670
0
LINE
8
Layer 1
10
1.587500
20
149.471000
11
0.529170
21
148.412670
0
LINE
8
Layer 1
10
1.058330
20
150.000000
11
0.000000
21
148.941670
0
LINE
8
0
10
49.123700
20
18.313000
11
50.078822
21
20.186380
0
LINE
8
0
10
50.078822
20
20.186380
11
50.708467
21
22.150174
0
LINE
8
0
10
50.708467
20
22.150174
11
51.015912
21
24.165401
0
LINE
8
0
10
51.015912
20
24.165401
11
51.004433
21
26.193081
0
LINE
8
0
10
51.004433
20
26.193081
11
50.677306
21
28.194232
0
LINE
8
0
10
50.677306
20
28.194232
11
50.037808
21
30.129872
0
LINE
8
0
10
50.037808
20
30.129872
11
49.089214
21
31.961022
0
LINE
8
0
10
49.089214
20
31.961022
11
47.834800
21
33.648700
0
LINE
8
0
10
47.834800
20
33.648700
11
48.008534
21
38.736946
0
LINE
8
0
10
48.008534
20
38.736946
11
48.427983
21
43.780578
0
LINE
8
0
10
48.427983
20
43.780578
11
49.060777
21
48.733990
0
LINE
8
0
10
49.060777
20
48.733990
11
49.874550
21
53.551575
0
LINE
8
0
10
49.874550
20
53.551575
11
50.836931
21
58.187725
0
LINE
8
0
10
50.836931
20
58.187725
11
51.915552
21
62.596834
0
LINE
8
0
10
51.915552
20
62.596834
11
54.292040
21
70.551500
0
LINE
8
0
10
54.292040
20
70.551500
11
55.624690
21
74.270666
0
LINE
8
0
10
55.624690
20
74.270666
11
57.154950
21
78.029395
0
LINE
8
0
10
57.154950
20
78.029395
11
58.880285
21
81.697201
0
LINE
8
0
10
58.880285
20
81.697201
11
60.798160
21
85.143600
0
LINE
8
0
10
60.798160
20
85.143600
11
62.472165
21
87.657661
0
LINE
8
0
10
62.472165
20
87.657661
11
64.375310
21
90.000580
0
LINE
8
0
10
64.375310
20
90.000580
11
66.127235
21
91.705695
0
LINE
8
0
10
66.127235
20
91.705695
11
68.099930
21
93.141230
0
LINE
8
0
10
53.099900
20
5.108530
11
51.850768
21
8.256470
0
LINE
8
0
10
51.850768
20
8.256470
11
50.783450
21
11.471250
0
LINE
8
0
10
50.783450
20
11.471250
11
49.861527
21
14.869605
0
LINE
8
0
10
49.861527
20
14.869605
11
49.123680
21
18.313020
0
LINE
8
0
10
27.076200
20
18.313000
11
26.338356
21
14.869581
0
LINE
8
0
10
26.338356
20
14.869581
11
25.416430
21
11.471230
0
LINE
8
0
10
25.416430
20
11.471230
11
24.349113
21
8.256454
0
LINE
8
0
10
24.349113
20
8.256454
11
23.099980
21
5.108510
0
LINE
8
0
10
8.099990
20
93.141200
11
10.336498
21
91.475443
0
LINE
8
0
10
10.336498
20
91.475443
11
12.290750
21
89.475300
0
LINE
8
0
10
12.290750
20
89.475300
11
14.070777
21
87.177811
0
LINE
8
0
10
14.070777
20
87.177811
11
15.684865
21
84.673651
0
LINE
8
0
10
15.684865
20
84.673651
11
17.131155
21
82.064066
0
LINE
8
0
10
17.131155
20
82.064066
11
18.407790
21
79.450300
0
LINE
8
0
10
18.407790
20
79.450300
11
20.458697
21
74.576691
0
LINE
8
0
10
20.458697
20
74.576691
11
22.326137
21
69.289945
0
LINE
8
0
10
22.326137
20
69.289945
11
23.984632
21
63.712551
0
LINE
8
0
10
23.984632
20
63.712551
11
25.408700
21
57.967000
0
LINE
8
0
10
25.408700
20
57.967000
11
26.363437
21
53.334046
0
LINE
8
0
10
26.363437
20
53.334046
11
27.305181
21
47.580146
0
LINE
8
0
10
27.305181
20
47.580146
11
28.037790
21
40.940124
0
LINE
8
0
10
28.037790
20
40.940124
11
28.365120
21
33.648800
0
LINE
8
0
10
28.365100
20
33.648700
11
27.110682
21
31.961025
0
LINE
8
0
10
27.110682
20
31.961025
11
26.162082
21
30.129877
0
LINE
8
0
10
26.162082
20
30.129877
11
25.522578
21
28.194238
0
LINE
8
0
10
25.522578
20
28.194238
11
25.195446
21
26.193088
0
LINE
8
0
10
25.195446
20
26.193088
11
25.183962
21
24.165407
0
LINE
8
0
10
25.183962
20
24.165407
11
25.491402
21
22.150179
0
LINE
8
0
10
25.491402
20
22.150179
11
26.121042
21
20.186383
0
LINE
8
0
10
26.121042
20
20.186383
11
27.076160
21
18.313000
0
LINE
8
0
10
46.049900
20
25.108500
11
45.774702
21
27.182793
0
LINE
8
0
10
45.774702
20
27.182793
11
44.984795
21
29.083495
0
LINE
8
0
10
44.984795
20
29.083495
11
43.733689
21
30.717923
0
LINE
8
0
10
43.733689
20
30.717923
11
42.074895
21
31.993393
0
LINE
8
0
10
42.074895
20
31.993393
11
40.140908
21
32.792216
0
LINE
8
0
10
40.140908
20
32.792216
11
38.099900
21
33.058490
0
LINE
8
0
10
38.099900
20
33.058490
11
36.058892
21
32.792216
0
LINE
8
0
10
36.058892
20
32.792216
11
34.124905
21
31.993393
0
LINE
8
0
10
34.124905
20
31.993393
11
32.466111
21
30.717923
0
LINE
8
0
10
32.466111
20
30.717923
11
31.215007
21
29.083495
0
LINE
8
0
10
31.215007
20
29.083495
11
30.425103
21
27.182793
0
LINE
8
0
10
30.425103
20
27.182793
11
30.149910
21
25.108500
0
LINE
8
0
10
30.149910
20
25.108500
11
30.425106
21
23.034207
0
LINE
8
0
10
30.425106
20
23.034207
11
31.215011
21
21.133505
0
LINE
8
0
10
31.215011
20
21.133505
11
32.466116
21
19.499077
0
LINE
8
0
10
32.466116
20
19.499077
11
34.124910
21
18.223607
0
LINE
8
0
10
34.124910
20
18.223607
11
36.058897
21
17.424784
0
LINE
8
0
10
36.058897
20
17.424784
11
38.099905
21
17.158510
0
LINE
8
0
10
38.099905
20
17.158510
11
40.140913
21
17.424784
0
LINE
8
0
10
40.140913
20
17.424784
11
42.074900
21
18.223607
0
LINE
8
0
10
42.074900
20
18.223607
11
43.733694
21
19.499077
0
LINE
8
0
10
43.733694
20
19.499077
11
44.984798
21
21.133505
0
LINE
8
0
10
44.984798
20
21.133505
11
45.774702
21
23.034207
0
LINE
8
0
10
45.774702
20
23.034207
11
46.049895
21
25.108500
0
LINE
8
0
10
46.049895
20
25.108500
11
46.049900
21
25.108500
0
LINE
8
0
10
23.100000
20
5.109060
11
53.099900
21
5.109060
0
LINE
8
0
10
8.099940
20
125.108000
11
8.099940
21
93.141100
0
LINE
8
0
10
68.100000
20
125.108000
11
8.099940
21
125.108000
0
LINE
8
0
10
68.100000
20
93.141100
11
68.100000
21
125.108000
0
LINE
8
0
10
116.891000
20
17.308700
11
117.846118
21
19.182083
0
LINE
8
0
10
117.846118
20
19.182083
11
118.475758
21
21.145879
0
LINE
8
0
10
118.475758
20
21.145879
11
118.783198
21
23.161107
0
LINE
8
0
10
118.783198
20
23.161107
11
118.771714
21
25.188788
0
LINE
8
0
10
118.771714
20
25.188788
11
118.444582
21
27.189938
0
LINE
8
0
10
118.444582
20
27.189938
11
117.805078
21
29.125577
0
LINE
8
0
10
117.805078
20
29.125577
11
116.856478
21
30.956725
0
LINE
8
0
10
116.856478
20
30.956725
11
115.602060
21
32.644400
0
LINE
8
0
10
115.602000
20
32.644400
11
115.775734
21
37.732646
0
LINE
8
0
10
115.775734
20
37.732646
11
116.195183
21
42.776278
0
LINE
8
0
10
116.195183
20
42.776278
11
116.827977
21
47.729690
0
LINE
8
0
10
116.827977
20
47.729690
11
117.641750
21
52.547275
0
LINE
8
0
10
117.641750
20
52.547275
11
118.604131
21
57.183425
0
LINE
8
0
10
118.604131
20
57.183425
11
119.682752
21
61.592534
0
LINE
8
0
10
119.682752
20
61.592534
11
122.059240
21
69.547200
0
LINE
8
0
10
122.059240
20
69.547200
11
123.391890
21
73.266366
0
LINE
8
0
10
123.391890
20
73.266366
11
124.922150
21
77.025095
0
LINE
8
0
10
124.922150
20
77.025095
11
126.647485
21
80.692901
0
LINE
8
0
10
126.647485
20
80.692901
11
128.565360
21
84.139300
0
LINE
8
0
10
128.565360
20
84.139300
11
130.239365
21
86.653361
0
LINE
8
0
10
130.239365
20
86.653361
11
132.142510
21
88.996280
0
LINE
8
0
10
132.142510
20
88.996280
11
133.894435
21
90.701395
0
LINE
8
0
10
133.894435
20
90.701395
11
135.867130
21
92.136930
0
LINE
8
0
10
120.867000
20
4.104240
11
119.617868
21
7.252180
0
LINE
8
0
10
119.617868
20
7.252180
11
118.550550
21
10.466960
0
LINE
8
0
10
118.550550
20
10.466960
11
117.628627
21
13.865315
0
LINE
8
0
10
117.628627
20
13.865315
11
116.890780
21
17.308730
0
LINE
8
0
10
94.843600
20
17.308700
11
94.105756
21
13.865281
0
LINE
8
0
10
94.105756
20
13.865281
11
93.183830
21
10.466930
0
LINE
8
0
10
93.183830
20
10.466930
11
92.116513
21
7.252154
0
LINE
8
0
10
92.116513
20
7.252154
11
90.867380
21
4.104210
0
LINE
8
0
10
75.867500
20
92.137000
11
78.104008
21
90.471243
0
LINE
8
0
10
78.104008
20
90.471243
11
80.058260
21
88.471100
0
LINE
8
0
10
80.058260
20
88.471100
11
81.838287
21
86.173611
0
LINE
8
0
10
81.838287
20
86.173611
11
83.452375
21
83.669451
0
LINE
8
0
10
83.452375
20
83.669451
11
84.898665
21
81.059866
0
LINE
8
0
10
84.898665
20
81.059866
11
86.175300
21
78.446100
0
LINE
8
0
10
86.175300
20
78.446100
11
88.226207
21
73.572491
0
LINE
8
0
10
88.226207
20
73.572491
11
90.093648
21
68.285745
0
LINE
8
0
10
90.093648
20
68.285745
11
91.752142
21
62.708351
0
LINE
8
0
10
91.752142
20
62.708351
11
93.176210
21
56.962800
0
LINE
8
0
10
93.176210
20
56.962800
11
94.130947
21
52.329846
0
LINE
8
0
10
94.130947
20
52.329846
11
95.072691
21
46.575946
0
LINE
8
0
10
95.072691
20
46.575946
11
95.805300
21
39.935924
0
LINE
8
0
10
95.805300
20
39.935924
11
96.132630
21
32.644600
0
LINE
8
0
10
96.132600
20
32.644400
11
94.878182
21
30.956725
0
LINE
8
0
10
94.878182
20
30.956725
11
93.929582
21
29.125577
0
LINE
8
0
10
93.929582
20
29.125577
11
93.290078
21
27.189938
0
LINE
8
0
10
93.290078
20
27.189938
11
92.962946
21
25.188788
0
LINE
8
0
10
92.962946
20
25.188788
11
92.951462
21
23.161107
0
LINE
8
0
10
92.951462
20
23.161107
11
93.258902
21
21.145879
0
LINE
8
0
10
93.258902
20
21.145879
11
93.888542
21
19.182083
0
LINE
8
0
10
93.888542
20
19.182083
11
94.843660
21
17.308700
0
LINE
8
0
10
113.817000
20
24.104200
11
113.541802
21
26.178493
0
LINE
8
0
10
113.541802
20
26.178493
11
112.751895
21
28.079195
0
LINE
8
0
10
112.751895
20
28.079195
11
111.500789
21
29.713623
0
LINE
8
0
10
111.500789
20
29.713623
11
109.841995
21
30.989093
0
LINE
8
0
10
109.841995
20
30.989093
11
107.908008
21
31.787916
0
LINE
8
0
10
107.908008
20
31.787916
11
105.867000
21
32.054190
0
LINE
8
0
10
105.867000
20
32.054190
11
103.825992
21
31.787916
0
LINE
8
0
10
103.825992
20
31.787916
11
101.892005
21
30.989093
0
LINE
8
0
10
101.892005
20
30.989093
11
100.233211
21
29.713623
0
LINE
8
0
10
100.233211
20
29.713623
11
98.982107
21
28.079195
0
LINE
8
0
10
98.982107
20
28.079195
11
98.192203
21
26.178493
0
LINE
8
0
10
98.192203
20
26.178493
11
97.917010
21
24.104200
0
LINE
8
0
10
97.917010
20
24.104200
11
98.192206
21
22.029907
0
LINE
8
0
10
98.192206
20
22.029907
11
98.982111
21
20.129205
0
LINE
8
0
10
98.982111
20
20.129205
11
100.233216
21
18.494777
0
LINE
8
0
10
100.233216
20
18.494777
11
101.892010
21
17.219307
0
LINE
8
0
10
101.892010
20
17.219307
11
103.825997
21
16.420484
0
LINE
8
0
10
103.825997
20
16.420484
11
105.867005
21
16.154210
0
LINE
8
0
10
105.867005
20
16.154210
11
107.908013
21
16.420484
0
LINE
8
0
10
107.908013
20
16.420484
11
109.842000
21
17.219307
0
LINE
8
0
10
109.842000
20
17.219307
11
111.500794
21
18.494777
0
LINE
8
0
10
111.500794
20
18.494777
11
112.751898
21
20.129205
0
LINE
8
0
10
112.751898
20
20.129205
11
113.541802
21
22.029907
0
LINE
8
0
10
113.541802
20
22.029907
11
113.816995
21
24.104200
0
LINE
8
0
10
113.816995
20
24.104200
11
113.817000
21
24.104200
0
LINE
8
0
10
90.867400
20
4.104770
11
120.867000
21
4.104770
0
LINE
8
0
10
75.867400
20
124.104000
11
75.867400
21
92.136800
0
LINE
8
0
10
135.867000
20
124.104000
11
75.867400
21
124.104000
0
LINE
8
0
10
135.867000
20
92.136800
11
135.867000
21
124.104000
0
LINE
8
0
10
86.175000
20
137.017000
11
85.949498
21
138.124634
0
LINE
8
0
10
85.949498
20
138.124634
11
85.338371
21
139.028802
0
LINE
8
0
10
85.338371
20
139.028802
11
84.433059
21
139.638235
0
LINE
8
0
10
84.433059
20
139.638235
11
83.325005
21
139.861661
0
LINE
8
0
10
83.325005
20
139.861661
11
82.216951
21
139.638235
0
LINE
8
0
10
82.216951
20
139.638235
11
81.311639
21
139.028802
0
LINE
8
0
10
81.311639
20
139.028802
11
80.700512
21
138.124634
0
LINE
8
0
10
80.700512
20
138.124634
11
80.475010
21
137.017000
0
LINE
8
0
10
80.475010
20
137.017000
11
80.700512
21
135.909366
0
LINE
8
0
10
80.700512
20
135.909366
11
81.311639
21
135.005198
0
LINE
8
0
10
81.311639
20
135.005198
11
82.216951
21
134.395765
0
LINE
8
0
10
82.216951
20
134.395765
11
83.325005
21
134.172339
0
LINE
8
0
10
83.325005
20
134.172339
11
84.433059
21
134.395765
0
LINE
8
0
10
84.433059
20
134.395765
11
85.338371
21
135.005198
0
LINE
8
0
10
85.338371
20
135.005198
11
85.949498
21
135.909366
0
LINE
8
0
10
85.949498
20
135.909366
11
86.175000
21
137.017000
0
LINE
8
0
10
86.175000
20
137.017000
11
86.175000
21
137.017000
0
LINE
8
0
10
86.175000
20
137.017000
11
85.949498
21
138.124634
0
LINE
8
0
10
85.949498
20
138.124634
11
85.338371
21
139.028802
0
LINE
8
0
10
85.338371
20
139.028802
11
84.433059
21
139.638235
0
LINE
8
0
10
84.433059
20
139.638235
11
83.325005
21
139.861661
0
LINE
8
0
10
83.325005
20
139.861661
11
82.216951
21
139.638235
0
LINE
8
0
10
82.216951
20
139.638235
11
81.311639
21
139.028802
0
LINE
8
0
10
81.311639
20
139.028802
11
80.700512
21
138.124634
0
LINE
8
0
10
80.700512
20
138.124634
11
80.475010
21
137.017000
0
LINE
8
0
10
80.475010
20
137.017000
11
80.700512
21
135.909366
0
LINE
8
0
10
80.700512
20
135.909366
11
81.311639
21
135.005198
0
LINE
8
0
10
81.311639
20
135.005198
11
82.216951
21
134.395765
0
LINE
8
0
10
82.216951
20
134.395765
11
83.325005
21
134.172339
0
LINE
8
0
10
83.325005
20
134.172339
11
84.433059
21
134.395765
0
LINE
8
0
10
84.433059
20
134.395765
11
85.338371
21
135.005198
0
LINE
8
0
10
85.338371
20
135.005198
11
85.949498
21
135.909366
0
LINE
8
0
10
85.949498
20
135.909366
11
86.175000
21
137.017000
0
LINE
8
0
10
86.175000
20
137.017000
11
86.175000
21
137.017000
0
LINE
8
0
10
90.325000
20
137.017000
11
90.082686
21
138.843421
0
LINE
8
0
10
90.082686
20
138.843421
11
89.387170
21
140.516995
0
LINE
8
0
10
89.387170
20
140.516995
11
88.285568
21
141.956114
0
LINE
8
0
10
88.285568
20
141.956114
11
86.824995
21
143.079169
0
LINE
8
0
10
86.824995
20
143.079169
11
85.122114
21
143.782535
0
LINE
8
0
10
85.122114
20
143.782535
11
83.325000
21
144.016990
0
LINE
8
0
10
83.325000
20
144.016990
11
81.527886
21
143.782535
0
LINE
8
0
10
81.527886
20
143.782535
11
79.825005
21
143.079169
0
LINE
8
0
10
79.825005
20
143.079169
11
78.364432
21
141.956114
0
LINE
8
0
10
78.364432
20
141.956114
11
77.262831
21
140.516995
0
LINE
8
0
10
77.262831
20
140.516995
11
76.567318
21
138.843421
0
LINE
8
0
10
76.567318
20
138.843421
11
76.325010
21
137.017000
0
LINE
8
0
10
76.325010
20
137.017000
11
76.567321
21
135.190579
0
LINE
8
0
10
76.567321
20
135.190579
11
77.262835
21
133.517005
0
LINE
8
0
10
77.262835
20
133.517005
11
78.364437
21
132.077886
0
LINE
8
0
10
78.364437
20
132.077886
11
79.825010
21
130.954831
0
LINE
8
0
10
79.825010
20
130.954831
11
81.527891
21
130.251465
0
LINE
8
0
10
81.527891
20
130.251465
11
83.325005
21
130.017010
0
LINE
8
0
10
83.325005
20
130.017010
11
85.122119
21
130.251465
0
LINE
8
0
10
85.122119
20
130.251465
11
86.825000
21
130.954831
0
LINE
8
0
10
86.825000
20
130.954831
11
88.285573
21
132.077886
0
LINE
8
0
10
88.285573
20
132.077886
11
89.387174
21
133.517005
0
LINE
8
0
10
89.387174
20
133.517005
11
90.082687
21
135.190579
0
LINE
8
0
10
90.082687
20
135.190579
11
90.324995
21
137.017000
0
LINE
8
0
10
90.324995
20
137.017000
11
90.325000
21
137.017000
0
LINE
8
0
10
66.718100
20
137.181000
11
66.492598
21
138.288634
0
LINE
8
0
10
66.492598
20
138.288634
11
65.881471
21
139.192802
0
LINE
8
0
10
65.881471
20
139.192802
11
64.976159
21
139.802235
0
LINE
8
0
10
64.976159
20
139.802235
11
63.868105
21
140.025661
0
LINE
8
0
10
63.868105
20
140.025661
11
62.760051
21
139.802235
0
LINE
8
0
10
62.760051
20
139.802235
11
61.854739
21
139.192802
0
LINE
8
0
10
61.854739
20
139.192802
11
61.243612
21
138.288634
0
LINE
8
0
10
61.243612
20
138.288634
11
61.018110
21
137.181000
0
LINE
8
0
10
61.018110
20
137.181000
11
61.243612
21
136.073366
0
LINE
8
0
10
61.243612
20
136.073366
11
61.854739
21
135.169198
0
LINE
8
0
10
61.854739
20
135.169198
11
62.760051
21
134.559765
0
LINE
8
0
10
62.760051
20
134.559765
11
63.868105
21
134.336339
0
LINE
8
0
10
63.868105
20
134.336339
11
64.976159
21
134.559765
0
LINE
8
0
10
64.976159
20
134.559765
11
65.881471
21
135.169198
0
LINE
8
0
10
65.881471
20
135.169198
11
66.492598
21
136.073366
0
LINE
8
0
10
66.492598
20
136.073366
11
66.718100
21
137.181000
0
LINE
8
0
10
66.718100
20
137.181000
11
66.718100
21
137.181000
0
LINE
8
0
10
66.718100
20
137.181000
11
66.492598
21
138.288634
0
LINE
8
0
10
66.492598
20
138.288634
11
65.881471
21
139.192802
0
LINE
8
0
10
65.881471
20
139.192802
11
64.976159
21
139.802235
0
LINE
8
0
10
64.976159
20
139.802235
11
63.868105
21
140.025661
0
LINE
8
0
10
63.868105
20
140.025661
11
62.760051
21
139.802235
0
LINE
8
0
10
62.760051
20
139.802235
11
61.854739
21
139.192802
0
LINE
8
0
10
61.854739
20
139.192802
11
61.243612
21
138.288634
0
LINE
8
0
10
61.243612
20
138.288634
11
61.018110
21
137.181000
0
LINE
8
0
10
61.018110
20
137.181000
11
61.243612
21
136.073366
0
LINE
8
0
10
61.243612
20
136.073366
11
61.854739
21
135.169198
0
LINE
8
0
10
61.854739
20
135.169198
11
62.760051
21
134.559765
0
LINE
8
0
10
62.760051
20
134.559765
11
63.868105
21
134.336339
0
LINE
8
0
10
63.868105
20
134.336339
11
64.976159
21
134.559765
0
LINE
8
0
10
64.976159
20
134.559765
11
65.881471
21
135.169198
0
LINE
8
0
10
65.881471
20
135.169198
11
66.492598
21
136.073366
0
LINE
8
0
10
66.492598
20
136.073366
11
66.718100
21
137.181000
0
LINE
8
0
10
66.718100
20
137.181000
11
66.718100
21
137.181000
0
LINE
8
0
10
70.868100
20
137.181000
11
70.625786
21
139.007421
0
LINE
8
0
10
70.625786
20
139.007421
11
69.930270
21
140.680995
0
LINE
8
0
10
69.930270
20
140.680995
11
68.828668
21
142.120114
0
LINE
8
0
10
68.828668
20
142.120114
11
67.368095
21
143.243169
0
LINE
8
0
10
67.368095
20
143.243169
11
65.665214
21
143.946535
0
LINE
8
0
10
65.665214
20
143.946535
11
63.868100
21
144.180990
0
LINE
8
0
10
63.868100
20
144.180990
11
62.070986
21
143.946535
0
LINE
8
0
10
62.070986
20
143.946535
11
60.368105
21
143.243169
0
LINE
8
0
10
60.368105
20
143.243169
11
58.907532
21
142.120114
0
LINE
8
0
10
58.907532
20
142.120114
11
57.805931
21
140.680995
0
LINE
8
0
10
57.805931
20
140.680995
11
57.110418
21
139.007421
0
LINE
8
0
10
57.110418
20
139.007421
11
56.868110
21
137.181000
0
LINE
8
0
10
56.868110
20
137.181000
11
57.110421
21
135.354579
0
LINE
8
0
10
57.110421
20
135.354579
11
57.805935
21
133.681005
0
LINE
8
0
10
57.805935
20
133.681005
11
58.907537
21
132.241886
0
LINE
8
0
10
58.907537
20
132.241886
11
60.368110
21
131.118831
0
LINE
8
0
10
60.368110
20
131.118831
11
62.070991
21
130.415465
0
LINE
8
0
10
62.070991
20
130.415465
11
63.868105
21
130.181010
0
LINE
8
0
10
63.868105
20
130.181010
11
65.665219
21
130.415465
0
LINE
8
0
10
65.665219
20
130.415465
11
67.368100
21
131.118831
0
LINE
8
0
10
67.368100
20
131.118831
11
68.828673
21
132.241886
0
LINE
8
0
10
68.828673
20
132.241886
11
69.930274
21
133.681005
0
LINE
8
0
10
69.930274
20
133.681005
11
70.625787
21
135.354579
0
LINE
8
0
10
70.625787
20
135.354579
11
70.868095
21
137.181000
0
LINE
8
0
10
70.868095
20
137.181000
11
70.868100
21
137.181000
0
LINE
8
0
10
48.955900
20
137.211000
11
48.730398
21
138.318634
0
LINE
8
0
10
48.730398
20
138.318634
11
48.119271
21
139.222802
0
LINE
8
0
10
48.119271
20
139.222802
11
47.213959
21
139.832235
0
LINE
8
0
10
47.213959
20
139.832235
11
46.105905
21
140.055661
0
LINE
8
0
10
46.105905
20
140.055661
11
44.997851
21
139.832235
0
LINE
8
0
10
44.997851
20
139.832235
11
44.092539
21
139.222802
0
LINE
8
0
10
44.092539
20
139.222802
11
43.481412
21
138.318634
0
LINE
8
0
10
43.481412
20
138.318634
11
43.255910
21
137.211000
0
LINE
8
0
10
43.255910
20
137.211000
11
43.481412
21
136.103366
0
LINE
8
0
10
43.481412
20
136.103366
11
44.092539
21
135.199198
0
LINE
8
0
10
44.092539
20
135.199198
11
44.997851
21
134.589765
0
LINE
8
0
10
44.997851
20
134.589765
11
46.105905
21
134.366339
0
LINE
8
0
10
46.105905
20
134.366339
11
47.213959
21
134.589765
0
LINE
8
0
10
47.213959
20
134.589765
11
48.119271
21
135.199198
0
LINE
8
0
10
48.119271
20
135.199198
11
48.730398
21
136.103366
0
LINE
8
0
10
48.730398
20
136.103366
11
48.955900
21
137.211000
0
LINE
8
0
10
48.955900
20
137.211000
11
48.955900
21
137.211000
0
LINE
8
0
10
48.955900
20
137.211000
11
48.730398
21
138.318634
0
LINE
8
0
10
48.730398
20
138.318634
11
48.119271
21
139.222802
0
LINE
8
0
10
48.119271
20
139.222802
11
47.213959
21
139.832235
0
LINE
8
0
10
47.213959
20
139.832235
11
46.105905
21
140.055661
0
LINE
8
0
10
46.105905
20
140.055661
11
44.997851
21
139.832235
0
LINE
8
0
10
44.997851
20
139.832235
11
44.092539
21
139.222802
0
LINE
8
0
10
44.092539
20
139.222802
11
43.481412
21
138.318634
0
LINE
8
0
10
43.481412
20
138.318634
11
43.255910
21
137.211000
0
LINE
8
0
10
43.255910
20
137.211000
11
43.481412
21
136.103366
0
LINE
8
0
10
43.481412
20
136.103366
11
44.092539
21
135.199198
0
LINE
8
0
10
44.092539
20
135.199198
11
44.997851
21
134.589765
0
LINE
8
0
10
44.997851
20
134.589765
11
46.105905
21
134.366339
0
LINE
8
0
10
46.105905
20
134.366339
11
47.213959
21
134.589765
0
LINE
8
0
10
47.213959
20
134.589765
11
48.119271
21
135.199198
0
LINE
8
0
10
48.119271
20
135.199198
11
48.730398
21
136.103366
0
LINE
8
0
10
48.730398
20
136.103366
11
48.955900
21
137.211000
0
LINE
8
0
10
48.955900
20
137.211000
11
48.955900
21
137.211000
0
LINE
8
0
10
53.105900
20
137.211000
11
52.863586
21
139.037421
0
LINE
8
0
10
52.863586
20
139.037421
11
52.168070
21
140.710995
0
LINE
8
0
10
52.168070
20
140.710995
11
51.066468
21
142.150114
0
LINE
8
0
10
51.066468
20
142.150114
11
49.605895
21
143.273169
0
LINE
8
0
10
49.605895
20
143.273169
11
47.903014
21
143.976535
0
LINE
8
0
10
47.903014
20
143.976535
11
46.105900
21
144.210990
0
LINE
8
0
10
46.105900
20
144.210990
11
44.308786
21
143.976535
0
LINE
8
0
10
44.308786
20
143.976535
11
42.605905
21
143.273169
0
LINE
8
0
10
42.605905
20
143.273169
11
41.145332
21
142.150114
0
LINE
8
0
10
41.145332
20
142.150114
11
40.043731
21
140.710995
0
LINE
8
0
10
40.043731
20
140.710995
11
39.348218
21
139.037421
0
LINE
8
0
10
39.348218
20
139.037421
11
39.105910
21
137.211000
0
LINE
8
0
10
39.105910
20
137.211000
11
39.348221
21
135.384579
0
LINE
8
0
10
39.348221
20
135.384579
11
40.043735
21
133.711005
0
LINE
8
0
10
40.043735
20
133.711005
11
41.145337
21
132.271886
0
LINE
8
0
10
41.145337
20
132.271886
11
42.605910
21
131.148831
0
LINE
8
0
10
42.605910
20
131.148831
11
44.308791
21
130.445465
0
LINE
8
0
10
44.308791
20
130.445465
11
46.105905
21
130.211010
0
LINE
8
0
10
46.105905
20
130.211010
11
47.903019
21
130.445465
0
LINE
8
0
10
47.903019
20
130.445465
11
49.605900
21
131.148831
0
LINE
8
0
10
49.605900
20
131.148831
11
51.066473
21
132.271886
0
LINE
8
0
10
51.066473
20
132.271886
11
52.168074
21
133.711005
0
LINE
8
0
10
52.168074
20
133.711005
11
52.863587
21
135.384579
0
LINE
8
0
10
52.863587
20
135.384579
11
53.105895
21
137.211000
0
LINE
8
0
10
53.105895
20
137.211000
11
53.105900
21
137.211000
0
LINE
8
0
10
31.697600
20
137.042000
11
31.472098
21
138.149634
0
LINE
8
0
10
31.472098
20
138.149634
11
30.860971
21
139.053802
0
LINE
8
0
10
30.860971
20
139.053802
11
29.955659
21
139.663235
0
LINE
8
0
10
29.955659
20
139.663235
11
28.847605
21
139.886661
0
LINE
8
0
10
28.847605
20
139.886661
11
27.739551
21
139.663235
0
LINE
8
0
10
27.739551
20
139.663235
11
26.834239
21
139.053802
0
LINE
8
0
10
26.834239
20
139.053802
11
26.223112
21
138.149634
0
LINE
8
0
10
26.223112
20
138.149634
11
25.997610
21
137.042000
0
LINE
8
0
10
25.997610
20
137.042000
11
26.223112
21
135.934366
0
LINE
8
0
10
26.223112
20
135.934366
11
26.834239
21
135.030198
0
LINE
8
0
10
26.834239
20
135.030198
11
27.739551
21
134.420765
0
LINE
8
0
10
27.739551
20
134.420765
11
28.847605
21
134.197339
0
LINE
8
0
10
28.847605
20
134.197339
11
29.955659
21
134.420765
0
LINE
8
0
10
29.955659
20
134.420765
11
30.860971
21
135.030198
0
LINE
8
0
10
30.860971
20
135.030198
11
31.472098
21
135.934366
0
LINE
8
0
10
31.472098
20
135.934366
11
31.697600
21
137.042000
0
LINE
8
0
10
31.697600
20
137.042000
11
31.697600
21
137.042000
0
LINE
8
0
10
31.697600
20
137.042000
11
31.472098
21
138.149634
0
LINE
8
0
10
31.472098
20
138.149634
11
30.860971
21
139.053802
0
LINE
8
0
10
30.860971
20
139.053802
11
29.955659
21
139.663235
0
LINE
8
0
10
29.955659
20
139.663235
11
28.847605
21
139.886661
0
LINE
8
0
10
28.847605
20
139.886661
11
27.739551
21
139.663235
0
LINE
8
0
10
27.739551
20
139.663235
11
26.834239
21
139.053802
0
LINE
8
0
10
26.834239
20
139.053802
11
26.223112
21
138.149634
0
LINE
8
0
10
26.223112
20
138.149634
11
25.997610
21
137.042000
0
LINE
8
0
10
25.997610
20
137.042000
11
26.223112
21
135.934366
0
LINE
8
0
10
26.223112
20
135.934366
11
26.834239
21
135.030198
0
LINE
8
0
10
26.834239
20
135.030198
11
27.739551
21
134.420765
0
LINE
8
0
10
27.739551
20
134.420765
11
28.847605
21
134.197339
0
LINE
8
0
10
28.847605
20
134.197339
11
29.955659
21
134.420765
0
LINE
8
0
10
29.955659
20
134.420765
11
30.860971
21
135.030198
0
LINE
8
0
10
30.860971
20
135.030198
11
31.472098
21
135.934366
0
LINE
8
0
10
31.472098
20
135.934366
11
31.697600
21
137.042000
0
LINE
8
0
10
31.697600
20
137.042000
11
31.697600
21
137.042000
0
LINE
8
0
10
35.847600
20
137.042000
11
35.605286
21
138.868421
0
LINE
8
0
10
35.605286
20
138.868421
11
34.909770
21
140.541995
0
LINE
8
0
10
34.909770
20
140.541995
11
33.808168
21
141.981114
0
LINE
8
0
10
33.808168
20
141.981114
11
32.347595
21
143.104169
0
LINE
8
0
10
32.347595
20
143.104169
11
30.644714
21
143.807535
0
LINE
8
0
10
30.644714
20
143.807535
11
28.847600
21
144.041990
0
LINE
8
0
10
28.847600
20
144.041990
11
27.050486
21
143.807535
0
LINE
8
0
10
27.050486
20
143.807535
11
25.347605
21
143.104169
0
LINE
8
0
10
25.347605
20
143.104169
11
23.887032
21
141.981114
0
LINE
8
0
10
23.887032
20
141.981114
11
22.785431
21
140.541995
0
LINE
8
0
10
22.785431
20
140.541995
11
22.089918
21
138.868421
0
LINE
8
0
10
22.089918
20
138.868421
11
21.847610
21
137.042000
0
LINE
8
0
10
21.847610
20
137.042000
11
22.089921
21
135.215579
0
LINE
8
0
10
22.089921
20
135.215579
11
22.785435
21
133.542005
0
LINE
8
0
10
22.785435
20
133.542005
11
23.887037
21
132.102886
0
LINE
8
0
10
23.887037
20
132.102886
11
25.347610
21
130.979831
0
LINE
8
0
10
25.347610
20
130.979831
11
27.050491
21
130.276465
0
LINE
8
0
10
27.050491
20
130.276465
11
28.847605
21
130.042010
0
LINE
8
0
10
28.847605
20
130.042010
11
30.644719
21
130.276465
0
LINE
8
0
10
30.644719
20
130.276465
11
32.347600
21
130.979831
0
LINE
8
0
10
32.347600
20
130.979831
11
33.808173
21
132.102886
0
LINE
8
0
10
33.808173
20
132.102886
11
34.909774
21
133.542005
0
LINE
8
0
10
34.909774
20
133.542005
11
35.605287
21
135.215579
0
LINE
8
0
10
35.605287
20
135.215579
11
35.847595
21
137.042000
0
LINE
8
0
10
35.847595
20
137.042000
11
35.847600
21
137.042000
0
LINE
8
0
10
105.064000
20
135.936000
11
104.838498
21
137.043634
0
LINE
8
0
10
104.838498
20
137.043634
11
104.227371
21
137.947802
0
LINE
8
0
10
104.227371
20
137.947802
11
103.322059
21
138.557235
0
LINE
8
0
10
103.322059
20
138.557235
11
102.214005
21
138.780661
0
LINE
8
0
10
102.214005
20
138.780661
11
101.105951
21
138.557235
0
LINE
8
0
10
101.105951
20
138.557235
11
100.200639
21
137.947802
0
LINE
8
0
10
100.200639
20
137.947802
11
99.589512
21
137.043634
0
LINE
8
0
10
99.589512
20
137.043634
11
99.364010
21
135.936000
0
LINE
8
0
10
99.364010
20
135.936000
11
99.589512
21
134.828366
0
LINE
8
0
10
99.589512
20
134.828366
11
100.200639
21
133.924198
0
LINE
8
0
10
100.200639
20
133.924198
11
101.105951
21
133.314765
0
LINE
8
0
10
101.105951
20
133.314765
11
102.214005
21
133.091339
0
LINE
8
0
10
102.214005
20
133.091339
11
103.322059
21
133.314765
0
LINE
8
0
10
103.322059
20
133.314765
11
104.227371
21
133.924198
0
LINE
8
0
10
104.227371
20
133.924198
11
104.838498
21
134.828366
0
LINE
8
0
10
104.838498
20
134.828366
11
105.064000
21
135.936000
0
LINE
8
0
10
105.064000
20
135.936000
11
105.064000
21
135.936000
0
LINE
8
0
10
105.064000
20
135.936000
11
104.838498
21
137.043634
0
LINE
8
0
10
104.838498
20
137.043634
11
104.227371
21
137.947802
0
LINE
8
0
10
104.227371
20
137.947802
11
103.322059
21
138.557235
0
LINE
8
0
10
103.322059
20
138.557235
11
102.214005
21
138.780661
0
LINE
8
0
10
102.214005
20
138.780661
11
101.105951
21
138.557235
0
LINE
8
0
10
101.105951
20
138.557235
11
100.200639
21
137.947802
0
LINE
8
0
10
100.200639
20
137.947802
11
99.589512
21
137.043634
0
LINE
8
0
10
99.589512
20
137.043634
11
99.364010
21
135.936000
0
LINE
8
0
10
99.364010
20
135.936000
11
99.589512
21
134.828366
0
LINE
8
0
10
99.589512
20
134.828366
11
100.200639
21
133.924198
0
LINE
8
0
10
100.200639
20
133.924198
11
101.105951
21
133.314765
0
LINE
8
0
10
101.105951
20
133.314765
11
102.214005
21
133.091339
0
LINE
8
0
10
102.214005
20
133.091339
11
103.322059
21
133.314765
0
LINE
8
0
10
103.322059
20
133.314765
11
104.227371
21
133.924198
0
LINE
8
0
10
104.227371
20
133.924198
11
104.838498
21
134.828366
0
LINE
8
0
10
104.838498
20
134.828366
11
105.064000
21
135.936000
0
LINE
8
0
10
105.064000
20
135.936000
11
105.064000
21
135.936000
0
LINE
8
0
10
109.214000
20
135.936000
11
108.971686
21
137.762421
0
LINE
8
0
10
108.971686
20
137.762421
11
108.276170
21
139.435995
0
LINE
8
0
10
108.276170
20
139.435995
11
107.174568
21
140.875114
0
LINE
8
0
10
107.174568
20
140.875114
11
105.713995
21
141.998169
0
LINE
8
0
10
105.713995
20
141.998169
11
104.011114
21
142.701535
0
LINE
8
0
10
104.011114
20
142.701535
11
102.214000
21
142.935990
0
LINE
8
0
10
102.214000
20
142.935990
11
100.416886
21
142.701535
0
LINE
8
0
10
100.416886
20
142.701535
11
98.714005
21
141.998169
0
LINE
8
0
10
98.714005
20
141.998169
11
97.253432
21
140.875114
0
LINE
8
0
10
97.253432
20
140.875114
11
96.151831
21
139.435995
0
LINE
8
0
10
96.151831
20
139.435995
11
95.456318
21
137.762421
0
LINE
8
0
10
95.456318
20
137.762421
11
95.214010
21
135.936000
0
LINE
8
0
10
95.214010
20
135.936000
11
95.456321
21
134.109579
0
LINE
8
0
10
95.456321
20
134.109579
11
96.151835
21
132.436005
0
LINE
8
0
10
96.151835
20
132.436005
11
97.253437
21
130.996886
0
LINE
8
0
10
97.253437
20
130.996886
11
98.714010
21
129.873831
0
LINE
8
0
10
98.714010
20
129.873831
11
100.416891
21
129.170465
0
LINE
8
0
10
100.416891
20
129.170465
11
102.214005
21
128.936010
0
LINE
8
0
10
102.214005
20
128.936010
11
104.011119
21
129.170465
0
LINE
8
0
10
104.011119
20
129.170465
11
105.714000
21
129.873831
0
LINE
8
0
10
105.714000
20
129.873831
11
107.174573
21
130.996886
0
LINE
8
0
10
107.174573
20
130.996886
11
108.276174
21
132.436005
0
LINE
8
0
10
108.276174
20
132.436005
11
108.971687
21
134.109579
0
LINE
8
0
10
108.971687
20
134.109579
11
109.213995
21
135.936000
0
LINE
8
0
10
109.213995
20
135.936000
11
109.214000
21
135.936000
0
LINE
8
0
10
122.599000
20
136.423000
11
122.373498
21
137.530634
0
LINE
8
0
10
122.373498
20
137.530634
11
121.762371
21
138.434802
0
LINE
8
0
10
121.762371
20
138.434802
11
120.857059
21
139.044235
0
LINE
8
0
10
120.857059
20
139.044235
11
119.749005
21
139.267661
0
LINE
8
0
10
119.749005
20
139.267661
11
118.640951
21
139.044235
0
LINE
8
0
10
118.640951
20
139.044235
11
117.735639
21
138.434802
0
LINE
8
0
10
117.735639
20
138.434802
11
117.124512
21
137.530634
0
LINE
8
0
10
117.124512
20
137.530634
11
116.899010
21
136.423000
0
LINE
8
0
10
116.899010
20
136.423000
11
117.124512
21
135.315366
0
LINE
8
0
10
117.124512
20
135.315366
11
117.735639
21
134.411198
0
LINE
8
0
10
117.735639
20
134.411198
11
118.640951
21
133.801765
0
LINE
8
0
10
118.640951
20
133.801765
11
119.749005
21
133.578339
0
LINE
8
0
10
119.749005
20
133.578339
11
120.857059
21
133.801765
0
LINE
8
0
10
120.857059
20
133.801765
11
121.762371
21
134.411198
0
LINE
8
0
10
121.762371
20
134.411198
11
122.373498
21
135.315366
0
LINE
8
0
10
122.373498
20
135.315366
11
122.599000
21
136.423000
0
LINE
8
0
10
122.599000
20
136.423000
11
122.599000
21
136.423000
0
LINE
8
0
10
122.599000
20
136.423000
11
122.373498
21
137.530634
0
LINE
8
0
10
122.373498
20
137.530634
11
121.762371
21
138.434802
0
LINE
8
0
10
121.762371
20
138.434802
11
120.857059
21
139.044235
0
LINE
8
0
10
120.857059
20
139.044235
11
119.749005
21
139.267661
0
LINE
8
0
10
119.749005
20
139.267661
11
118.640951
21
139.044235
0
LINE
8
0
10
118.640951
20
139.044235
11
117.735639
21
138.434802
0
LINE
8
0
10
117.735639
20
138.434802
11
117.124512
21
137.530634
0
LINE
8
0
10
117.124512
20
137.530634
11
116.899010
21
136.423000
0
LINE
8
0
10
116.899010
20
136.423000
11
117.124512
21
135.315366
0
LINE
8
0
10
117.124512
20
135.315366
11
117.735639
21
134.411198
0
LINE
8
0
10
117.735639
20
134.411198
11
118.640951
21
133.801765
0
LINE
8
0
10
118.640951
20
133.801765
11
119.749005
21
133.578339
0
LINE
8
0
10
119.749005
20
133.578339
11
120.857059
21
133.801765
0
LINE
8
0
10
120.857059
20
133.801765
11
121.762371
21
134.411198
0
LINE
8
0
10
121.762371
20
134.411198
11
122.373498
21
135.315366
0
LINE
8
0
10
122.373498
20
135.315366
11
122.599000
21
136.423000
0
LINE
8
0
10
122.599000
20
136.423000
11
122.599000
21
136.423000
0
LINE
8
0
10
126.749000
20
136.423000
11
126.506686
21
138.249421
0
LINE
8
0
10
126.506686
20
138.249421
11
125.811170
21
139.922995
0
LINE
8
0
10
125.811170
20
139.922995
11
124.709568
21
141.362114
0
LINE
8
0
10
124.709568
20
141.362114
11
123.248995
21
142.485169
0
LINE
8
0
10
123.248995
20
142.485169
11
121.546114
21
143.188535
0
LINE
8
0
10
121.546114
20
143.188535
11
119.749000
21
143.422990
0
LINE
8
0
10
119.749000
20
143.422990
11
117.951886
21
143.188535
0
LINE
8
0
10
117.951886
20
143.188535
11
116.249005
21
142.485169
0
LINE
8
0
10
116.249005
20
142.485169
11
114.788432
21
141.362114
0
LINE
8
0
10
114.788432
20
141.362114
11
113.686831
21
139.922995
0
LINE
8
0
10
113.686831
20
139.922995
11
112.991318
21
138.249421
0
LINE
8
0
10
112.991318
20
138.249421
11
112.749010
21
136.423000
0
LINE
8
0
10
112.749010
20
136.423000
11
112.991321
21
134.596579
0
LINE
8
0
10
112.991321
20
134.596579
11
113.686835
21
132.923005
0
LINE
8
0
10
113.686835
20
132.923005
11
114.788437
21
131.483886
0
LINE
8
0
10
114.788437
20
131.483886
11
116.249010
21
130.360831
0
LINE
8
0
10
116.249010
20
130.360831
11
117.951891
21
129.657465
0
LINE
8
0
10
117.951891
20
129.657465
11
119.749005
21
129.423010
0
LINE
8
0
10
119.749005
20
129.423010
11
121.546119
21
129.657465
0
LINE
8
0
10
121.546119
20
129.657465
11
123.249000
21
130.360831
0
LINE
8
0
10
123.249000
20
130.360831
11
124.709573
21
131.483886
0
LINE
8
0
10
124.709573
20
131.483886
11
125.811174
21
132.923005
0
LINE
8
0
10
125.811174
20
132.923005
11
126.506687
21
134.596579
0
LINE
8
0
10
126.506687
20
134.596579
11
126.748995
21
136.423000
0
LINE
8
0
10
126.748995
20
136.423000
11
126.749000
21
136.423000
0
LINE
8
0
10
13.722200
20
137.398000
11
13.496698
21
138.505634
0
LINE
8
0
10
13.496698
20
138.505634
11
12.885571
21
139.409802
0
LINE
8
0
10
12.885571
20
139.409802
11
11.980259
21
140.019235
0
LINE
8
0
10
11.980259
20
140.019235
11
10.872205
21
140.242661
0
LINE
8
0
10
10.872205
20
140.242661
11
9.764151
21
140.019235
0
LINE
8
0
10
9.764151
20
140.019235
11
8.858839
21
139.409802
0
LINE
8
0
10
8.858839
20
139.409802
11
8.247712
21
138.505634
0
LINE
8
0
10
8.247712
20
138.505634
11
8.022210
21
137.398000
0
LINE
8
0
10
8.022210
20
137.398000
11
8.247712
21
136.290366
0
LINE
8
0
10
8.247712
20
136.290366
11
8.858839
21
135.386198
0
LINE
8
0
10
8.858839
20
135.386198
11
9.764151
21
134.776765
0
LINE
8
0
10
9.764151
20
134.776765
11
10.872205
21
134.553339
0
LINE
8
0
10
10.872205
20
134.553339
11
11.980259
21
134.776765
0
LINE
8
0
10
11.980259
20
134.776765
11
12.885571
21
135.386198
0
LINE
8
0
10
12.885571
20
135.386198
11
13.496698
21
136.290366
0
LINE
8
0
10
13.496698
20
136.290366
11
13.722200
21
137.398000
0
LINE
8
0
10
13.722200
20
137.398000
11
13.722200
21
137.398000
0
LINE
8
0
10
13.722200
20
137.398000
11
13.496698
21
138.505634
0
LINE
8
0
10
13.496698
20
138.505634
11
12.885571
21
139.409802
0
LINE
8
0
10
12.885571
20
139.409802
11
11.980259
21
140.019235
0
LINE
8
0
10
11.980259
20
140.019235
11
10.872205
21
140.242661
0
LINE
8
0
10
10.872205
20
140.242661
11
9.764151
21
140.019235
0
LINE
8
0
10
9.764151
20
140.019235
11
8.858839
21
139.409802
0
LINE
8
0
10
8.858839
20
139.409802
11
8.247712
21
138.505634
0
LINE
8
0
10
8.247712
20
138.505634
11
8.022210
21
137.398000
0
LINE
8
0
10
8.022210
20
137.398000
11
8.247712
21
136.290366
0
LINE
8
0
10
8.247712
20
136.290366
11
8.858839
21
135.386198
0
LINE
8
0
10
8.858839
20
135.386198
11
9.764151
21
134.776765
0
LINE
8
0
10
9.764151
20
134.776765
11
10.872205
21
134.553339
0
LINE
8
0
10
10.872205
20
134.553339
11
11.980259
21
134.776765
0
LINE
8
0
10
11.980259
20
134.776765
11
12.885571
21
135.386198
0
LINE
8
0
10
12.885571
20
135.386198
11
13.496698
21
136.290366
0
LINE
8
0
10
13.496698
20
136.290366
11
13.722200
21
137.398000
0
LINE
8
0
10
13.722200
20
137.398000
11
13.722200
21
137.398000
0
LINE
8
0
10
17.872200
20
137.398000
11
17.629886
21
139.224421
0
LINE
8
0
10
17.629886
20
139.224421
11
16.934370
21
140.897995
0
LINE
8
0
10
16.934370
20
140.897995
11
15.832768
21
142.337114
0
LINE
8
0
10
15.832768
20
142.337114
11
14.372195
21
143.460169
0
LINE
8
0
10
14.372195
20
143.460169
11
12.669314
21
144.163535
0
LINE
8
0
10
12.669314
20
144.163535
11
10.872200
21
144.397990
0
LINE
8
0
10
10.872200
20
144.397990
11
9.075086
21
144.163535
0
LINE
8
0
10
9.075086
20
144.163535
11
7.372205
21
143.460169
0
LINE
8
0
10
7.372205
20
143.460169
11
5.911632
21
142.337114
0
LINE
8
0
10
5.911632
20
142.337114
11
4.810031
21
140.897995
0
LINE
8
0
10
4.810031
20
140.897995
11
4.114518
21
139.224421
0
LINE
8
0
10
4.114518
20
139.224421
11
3.872210
21
137.398000
0
LINE
8
0
10
3.872210
20
137.398000
11
4.114521
21
135.571579
0
LINE
8
0
10
4.114521
20
135.571579
11
4.810035
21
133.898005
0
LINE
8
0
10
4.810035
20
133.898005
11
5.911637
21
132.458886
0
LINE
8
0
10
5.911637
20
132.458886
11
7.372210
21
131.335831
0
LINE
8
0
10
7.372210
20
131.335831
11
9.075091
21
130.632465
0
LINE
8
0
10
9.075091
20
130.632465
11
10.872205
21
130.398010
0
LINE
8
0
10
10.872205
20
130.398010
11
12.669319
21
130.632465
0
LINE
8
0
10
12.669319
20
130.632465
11
14.372200
21
131.335831
0
LINE
8
0
10
14.372200
20
131.335831
11
15.832773
21
132.458886
0
LINE
8
0
10
15.832773
20
132.458886
11
16.934374
21
133.898005
0
LINE
8
0
10
16.934374
20
133.898005
11
17.629887
21
135.571579
0
LINE
8
0
10
17.629887
20
135.571579
11
17.872195
21
137.398000
0
LINE
8
0
10
17.872195
20
137.398000
11
17.872200
21
137.398000
0
LINE
8
0
10
15.149900
20
22.998700
11
14.924398
21
24.106334
0
LINE
8
0
10
14.924398
20
24.106334
11
14.313271
21
25.010502
0
LINE
8
0
10
14.313271
20
25.010502
11
13.407959
21
25.619935
0
LINE
8
0
10
13.407959
20
25.619935
11
12.299905
21
25.843361
0
LINE
8
0
10
12.299905
20
25.843361
11
11.191851
21
25.619935
0
LINE
8
0
10
11.191851
20
25.619935
11
10.286539
21
25.010502
0
LINE
8
0
10
10.286539
20
25.010502
11
9.675412
21
24.106334
0
LINE
8
0
10
9.675412
20
24.106334
11
9.449910
21
22.998700
0
LINE
8
0
10
9.449910
20
22.998700
11
9.675412
21
21.891066
0
LINE
8
0
10
9.675412
20
21.891066
11
10.286539
21
20.986898
0
LINE
8
0
10
10.286539
20
20.986898
11
11.191851
21
20.377465
0
LINE
8
0
10
11.191851
20
20.377465
11
12.299905
21
20.154039
0
LINE
8
0
10
12.299905
20
20.154039
11
13.407959
21
20.377465
0
LINE
8
0
10
13.407959
20
20.377465
11
14.313271
21
20.986898
0
LINE
8
0
10
14.313271
20
20.986898
11
14.924398
21
21.891066
0
LINE
8
0
10
14.924398
20
21.891066
11
15.149900
21
22.998700
0
LINE
8
0
10
15.149900
20
22.998700
11
15.149900
21
22.998700
0
LINE
8
0
10
15.149900
20
22.998700
11
14.924398
21
24.106334
0
LINE
8
0
10
14.924398
20
24.106334
11
14.313271
21
25.010502
0
LINE
8
0
10
14.313271
20
25.010502
11
13.407959
21
25.619935
0
LINE
8
0
10
13.407959
20
25.619935
11
12.299905
21
25.843361
0
LINE
8
0
10
12.299905
20
25.843361
11
11.191851
21
25.619935
0
LINE
8
0
10
11.191851
20
25.619935
11
10.286539
21
25.010502
0
LINE
8
0
10
10.286539
20
25.010502
11
9.675412
21
24.106334
0
LINE
8
0
10
9.675412
20
24.106334
11
9.449910
21
22.998700
0
LINE
8
0
10
9.449910
20
22.998700
11
9.675412
21
21.891066
0
LINE
8
0
10
9.675412
20
21.891066
11
10.286539
21
20.986898
0
LINE
8
0
10
10.286539
20
20.986898
11
11.191851
21
20.377465
0
LINE
8
0
10
11.191851
20
20.377465
11
12.299905
21
20.154039
0
LINE
8
0
10
12.299905
20
20.154039
11
13.407959
21
20.377465
0
LINE
8
0
10
13.407959
20
20.377465
11
14.313271
21
20.986898
0
LINE
8
0
10
14.313271
20
20.986898
11
14.924398
21
21.891066
0
LINE
8
0
10
14.924398
20
21.891066
11
15.149900
21
22.998700
0
LINE
8
0
10
15.149900
20
22.998700
11
15.149900
21
22.998700
0
LINE
8
0
10
19.299900
20
22.998700
11
19.057586
21
24.825121
0
LINE
8
0
10
19.057586
20
24.825121
11
18.362070
21
26.498695
0
LINE
8
0
10
18.362070
20
26.498695
11
17.260468
21
27.937814
0
LINE
8
0
10
17.260468
20
27.937814
11
15.799895
21
29.060869
0
LINE
8
0
10
15.799895
20
29.060869
11
14.097014
21
29.764235
0
LINE
8
0
10
14.097014
20
29.764235
11
12.299900
21
29.998690
0
LINE
8
0
10
12.299900
20
29.998690
11
10.502786
21
29.764235
0
LINE
8
0
10
10.502786
20
29.764235
11
8.799905
21
29.060869
0
LINE
8
0
10
8.799905
20
29.060869
11
7.339332
21
27.937814
0
LINE
8
0
10
7.339332
20
27.937814
11
6.237731
21
26.498695
0
LINE
8
0
10
6.237731
20
26.498695
11
5.542218
21
24.825121
0
LINE
8
0
10
5.542218
20
24.825121
11
5.299910
21
22.998700
0
LINE
8
0
10
5.299910
20
22.998700
11
5.542221
21
21.172279
0
LINE
8
0
10
5.542221
20
21.172279
11
6.237735
21
19.498705
0
LINE
8
0
10
6.237735
20
19.498705
11
7.339337
21
18.059586
0
LINE
8
0
10
7.339337
20
18.059586
11
8.799910
21
16.936531
0
LINE
8
0
10
8.799910
20
16.936531
11
10.502791
21
16.233165
0
LINE
8
0
10
10.502791
20
16.233165
11
12.299905
21
15.998710
0
LINE
8
0
10
12.299905
20
15.998710
11
14.097019
21
16.233165
0
LINE
8
0
10
14.097019
20
16.233165
11
15.799900
21
16.936531
0
LINE
8
0
10
15.799900
20
16.936531
11
17.260473
21
18.059586
0
LINE
8
0
10
17.260473
20
18.059586
11
18.362074
21
19.498705
0
LINE
8
0
10
18.362074
20
19.498705
11
19.057587
21
21.172279
0
LINE
8
0
10
19.057587
20
21.172279
11
19.299895
21
22.998700
0
LINE
8
0
10
19.299895
20
22.998700
11
19.299900
21
22.998700
0
LINE
8
0
10
141.114000
20
137.356000
11
140.888498
21
138.463634
0
LINE
8
0
10
140.888498
20
138.463634
11
140.277371
21
139.367802
0
LINE
8
0
10
140.277371
20
139.367802
11
139.372059
21
139.977235
0
LINE
8
0
10
139.372059
20
139.977235
11
138.264005
21
140.200661
0
LINE
8
0
10
138.264005
20
140.200661
11
137.155951
21
139.977235
0
LINE
8
0
10
137.155951
20
139.977235
11
136.250639
21
139.367802
0
LINE
8
0
10
136.250639
20
139.367802
11
135.639512
21
138.463634
0
LINE
8
0
10
135.639512
20
138.463634
11
135.414010
21
137.356000
0
LINE
8
0
10
135.414010
20
137.356000
11
135.639512
21
136.248366
0
LINE
8
0
10
135.639512
20
136.248366
11
136.250639
21
135.344198
0
LINE
8
0
10
136.250639
20
135.344198
11
137.155951
21
134.734765
0
LINE
8
0
10
137.155951
20
134.734765
11
138.264005
21
134.511339
0
LINE
8
0
10
138.264005
20
134.511339
11
139.372059
21
134.734765
0
LINE
8
0
10
139.372059
20
134.734765
11
140.277371
21
135.344198
0
LINE
8
0
10
140.277371
20
135.344198
11
140.888498
21
136.248366
0
LINE
8
0
10
140.888498
20
136.248366
11
141.114000
21
137.356000
0
LINE
8
0
10
141.114000
20
137.356000
11
141.114000
21
137.356000
0
LINE
8
0
10
141.114000
20
137.356000
11
140.888498
21
138.463634
0
LINE
8
0
10
140.888498
20
138.463634
11
140.277371
21
139.367802
0
LINE
8
0
10
140.277371
20
139.367802
11
139.372059
21
139.977235
0
LINE
8
0
10
139.372059
20
139.977235
11
138.264005
21
140.200661
0
LINE
8
0
10
138.264005
20
140.200661
11
137.155951
21
139.977235
0
LINE
8
0
10
137.155951
20
139.977235
11
136.250639
21
139.367802
0
LINE
8
0
10
136.250639
20
139.367802
11
135.639512
21
138.463634
0
LINE
8
0
10
135.639512
20
138.463634
11
135.414010
21
137.356000
0
LINE
8
0
10
135.414010
20
137.356000
11
135.639512
21
136.248366
0
LINE
8
0
10
135.639512
20
136.248366
11
136.250639
21
135.344198
0
LINE
8
0
10
136.250639
20
135.344198
11
137.155951
21
134.734765
0
LINE
8
0
10
137.155951
20
134.734765
11
138.264005
21
134.511339
0
LINE
8
0
10
138.264005
20
134.511339
11
139.372059
21
134.734765
0
LINE
8
0
10
139.372059
20
134.734765
11
140.277371
21
135.344198
0
LINE
8
0
10
140.277371
20
135.344198
11
140.888498
21
136.248366
0
LINE
8
0
10
140.888498
20
136.248366
11
141.114000
21
137.356000
0
LINE
8
0
10
141.114000
20
137.356000
11
141.114000
21
137.356000
0
LINE
8
0
10
145.264000
20
137.356000
11
145.021686
21
139.182421
0
LINE
8
0
10
145.021686
20
139.182421
11
144.326170
21
140.855995
0
LINE
8
0
10
144.326170
20
140.855995
11
143.224568
21
142.295114
0
LINE
8
0
10
143.224568
20
142.295114
11
141.763995
21
143.418169
0
LINE
8
0
10
141.763995
20
143.418169
11
140.061114
21
144.121535
0
LINE
8
0
10
140.061114
20
144.121535
11
138.264000
21
144.355990
0
LINE
8
0
10
138.264000
20
144.355990
11
136.466886
21
144.121535
0
LINE
8
0
10
136.466886
20
144.121535
11
134.764005
21
143.418169
0
LINE
8
0
10
134.764005
20
143.418169
11
133.303432
21
142.295114
0
LINE
8
0
10
133.303432
20
142.295114
11
132.201831
21
140.855995
0
LINE
8
0
10
132.201831
20
140.855995
11
131.506318
21
139.182421
0
LINE
8
0
10
131.506318
20
139.182421
11
131.264010
21
137.356000
0
LINE
8
0
10
131.264010
20
137.356000
11
131.506321
21
135.529579
0
LINE
8
0
10
131.506321
20
135.529579
11
132.201835
21
133.856005
0
LINE
8
0
10
132.201835
20
133.856005
11
133.303437
21
132.416886
0
LINE
8
0
10
133.303437
20
132.416886
11
134.764010
21
131.293831
0
LINE
8
0
10
134.764010
20
131.293831
11
136.466891
21
130.590465
0
LINE
8
0
10
136.466891
20
130.590465
11
138.264005
21
130.356010
0
LINE
8
0
10
138.264005
20
130.356010
11
140.061119
21
130.590465
0
LINE
8
0
10
140.061119
20
130.590465
11
141.764000
21
131.293831
0
LINE
8
0
10
141.764000
20
131.293831
11
143.224573
21
132.416886
0
LINE
8
0
10
143.224573
20
132.416886
11
144.326174
21
133.856005
0
LINE
8
0
10
144.326174
20
133.856005
11
145.021687
21
135.529579
0
LINE
8
0
10
145.021687
20
135.529579
11
145.263995
21
137.356000
0
LINE
8
0
10
145.263995
20
137.356000
11
145.264000
21
137.356000
0
LINE
8
0
10
15.427100
20
50.403300
11
15.201598
21
51.510934
0
LINE
8
0
10
15.201598
20
51.510934
11
14.590471
21
52.415102
0
LINE
8
0
10
14.590471
20
52.415102
11
13.685159
21
53.024535
0
LINE
8
0
10
13.685159
20
53.024535
11
12.577105
21
53.247961
0
LINE
8
0
10
12.577105
20
53.247961
11
11.469051
21
53.024535
0
LINE
8
0
10
11.469051
20
53.024535
11
10.563739
21
52.415102
0
LINE
8
0
10
10.563739
20
52.415102
11
9.952612
21
51.510934
0
LINE
8
0
10
9.952612
20
51.510934
11
9.727110
21
50.403300
0
LINE
8
0
10
9.727110
20
50.403300
11
9.952612
21
49.295666
0
LINE
8
0
10
9.952612
20
49.295666
11
10.563739
21
48.391498
0
LINE
8
0
10
10.563739
20
48.391498
11
11.469051
21
47.782065
0
LINE
8
0
10
11.469051
20
47.782065
11
12.577105
21
47.558639
0
LINE
8
0
10
12.577105
20
47.558639
11
13.685159
21
47.782065
0
LINE
8
0
10
13.685159
20
47.782065
11
14.590471
21
48.391498
0
LINE
8
0
10
14.590471
20
48.391498
11
15.201598
21
49.295666
0
LINE
8
0
10
15.201598
20
49.295666
11
15.427100
21
50.403300
0
LINE
8
0
10
15.427100
20
50.403300
11
15.427100
21
50.403300
0
LINE
8
0
10
15.427100
20
50.403300
11
15.201598
21
51.510934
0
LINE
8
0
10
15.201598
20
51.510934
11
14.590471
21
52.415102
0
LINE
8
0
10
14.590471
20
52.415102
11
13.685159
21
53.024535
0
LINE
8
0
10
13.685159
20
53.024535
11
12.577105
21
53.247961
0
LINE
8
0
10
12.577105
20
53.247961
11
11.469051
21
53.024535
0
LINE
8
0
10
11.469051
20
53.024535
11
10.563739
21
52.415102
0
LINE
8
0
10
10.563739
20
52.415102
11
9.952612
21
51.510934
0
LINE
8
0
10
9.952612
20
51.510934
11
9.727110
21
50.403300
0
LINE
8
0
10
9.727110
20
50.403300
11
9.952612
21
49.295666
0
LINE
8
0
10
9.952612
20
49.295666
11
10.563739
21
48.391498
0
LINE
8
0
10
10.563739
20
48.391498
11
11.469051
21
47.782065
0
LINE
8
0
10
11.469051
20
47.782065
11
12.577105
21
47.558639
0
LINE
8
0
10
12.577105
20
47.558639
11
13.685159
21
47.782065
0
LINE
8
0
10
13.685159
20
47.782065
11
14.590471
21
48.391498
0
LINE
8
0
10
14.590471
20
48.391498
11
15.201598
21
49.295666
0
LINE
8
0
10
15.201598
20
49.295666
11
15.427100
21
50.403300
0
LINE
8
0
10
15.427100
20
50.403300
11
15.427100
21
50.403300
0
LINE
8
0
10
19.577100
20
50.403300
11
19.334786
21
52.229721
0
LINE
8
0
10
19.334786
20
52.229721
11
18.639270
21
53.903295
0
LINE
8
0
10
18.639270
20
53.903295
11
17.537668
21
55.342414
0
LINE
8
0
10
17.537668
20
55.342414
11
16.077095
21
56.465469
0
LINE
8
0
10
16.077095
20
56.465469
11
14.374214
21
57.168835
0
LINE
8
0
10
14.374214
20
57.168835
11
12.577100
21
57.403290
0
LINE
8
0
10
12.577100
20
57.403290
11
10.779986
21
57.168835
0
LINE
8
0
10
10.779986
20
57.168835
11
9.077105
21
56.465469
0
LINE
8
0
10
9.077105
20
56.465469
11
7.616532
21
55.342414
0
LINE
8
0
10
7.616532
20
55.342414
11
6.514931
21
53.903295
0
LINE
8
0
10
6.514931
20
53.903295
11
5.819418
21
52.229721
0
LINE
8
0
10
5.819418
20
52.229721
11
5.577110
21
50.403300
0
LINE
8
0
10
5.577110
20
50.403300
11
5.819421
21
48.576879
0
LINE
8
0
10
5.819421
20
48.576879
11
6.514935
21
46.903305
0
LINE
8
0
10
6.514935
20
46.903305
11
7.616537
21
45.464186
0
LINE
8
0
10
7.616537
20
45.464186
11
9.077110
21
44.341131
0
LINE
8
0
10
9.077110
20
44.341131
11
10.779991
21
43.637765
0
LINE
8
0
10
10.779991
20
43.637765
11
12.577105
21
43.403310
0
LINE
8
0
10
12.577105
20
43.403310
11
14.374219
21
43.637765
0
LINE
8
0
10
14.374219
20
43.637765
11
16.077100
21
44.341131
0
LINE
8
0
10
16.077100
20
44.341131
11
17.537673
21
45.464186
0
LINE
8
0
10
17.537673
20
45.464186
11
18.639274
21
46.903305
0
LINE
8
0
10
18.639274
20
46.903305
11
19.334787
21
48.576879
0
LINE
8
0
10
19.334787
20
48.576879
11
19.577095
21
50.403300
0
LINE
8
0
10
19.577095
20
50.403300
11
19.577100
21
50.403300
0
LINE
8
0
10
143.093000
20
55.557100
11
142.817802
21
57.631393
0
LINE
8
0
10
142.817802
20
57.631393
11
142.027895
21
59.532095
0
LINE
8
0
10
142.027895
20
59.532095
11
140.776789
21
61.166523
0
LINE
8
0
10
140.776789
20
61.166523
11
139.117995
21
62.441993
0
LINE
8
0
10
139.117995
20
62.441993
11
137.184008
21
63.240816
0
LINE
8
0
10
137.184008
20
63.240816
11
135.143000
21
63.507090
0
LINE
8
0
10
135.143000
20
63.507090
11
133.101992
21
63.240816
0
LINE
8
0
10
133.101992
20
63.240816
11
131.168005
21
62.441993
0
LINE
8
0
10
131.168005
20
62.441993
11
129.509211
21
61.166523
0
LINE
8
0
10
129.509211
20
61.166523
11
128.258107
21
59.532095
0
LINE
8
0
10
128.258107
20
59.532095
11
127.468203
21
57.631393
0
LINE
8
0
10
127.468203
20
57.631393
11
127.193010
21
55.557100
0
LINE
8
0
10
127.193010
20
55.557100
11
127.468206
21
53.482807
0
LINE
8
0
10
127.468206
20
53.482807
11
128.258111
21
51.582105
0
LINE
8
0
10
128.258111
20
51.582105
11
129.509216
21
49.947677
0
LINE
8
0
10
129.509216
20
49.947677
11
131.168010
21
48.672207
0
LINE
8
0
10
131.168010
20
48.672207
11
133.101997
21
47.873384
0
LINE
8
0
10
133.101997
20
47.873384
11
135.143005
21
47.607110
0
LINE
8
0
10
135.143005
20
47.607110
11
137.184013
21
47.873384
0
LINE
8
0
10
137.184013
20
47.873384
11
139.118000
21
48.672207
0
LINE
8
0
10
139.118000
20
48.672207
11
140.776794
21
49.947677
0
LINE
8
0
10
140.776794
20
49.947677
11
142.027898
21
51.582105
0
LINE
8
0
10
142.027898
20
51.582105
11
142.817802
21
53.482807
0
LINE
8
0
10
142.817802
20
53.482807
11
143.092995
21
55.557100
0
LINE
8
0
10
143.092995
20
55.557100
11
143.093000
21
55.557100
0
LINE
8
0
10
143.093000
20
55.557100
11
142.817802
21
57.631393
0
LINE
8
0
10
142.817802
20
57.631393
11
142.027895
21
59.532095
0
LINE
8
0
10
142.027895
20
59.532095
11
140.776789
21
61.166523
0
LINE
8
0
10
140.776789
20
61.166523
11
139.117995
21
62.441993
0
LINE
8
0
10
139.117995
20
62.441993
11
137.184008
21
63.240816
0
LINE
8
0
10
137.184008
20
63.240816
11
135.143000
21
63.507090
0
LINE
8
0
10
135.143000
20
63.507090
11
133.101992
21
63.240816
0
LINE
8
0
10
133.101992
20
63.240816
11
131.168005
21
62.441993
0
LINE
8
0
10
131.168005
20
62.441993
11
129.509211
21
61.166523
0
LINE
8
0
10
129.509211
20
61.166523
11
128.258107
21
59.532095
0
LINE
8
0
10
128.258107
20
59.532095
11
127.468203
21
57.631393
0
LINE
8
0
10
127.468203
20
57.631393
11
127.193010
21
55.557100
0
LINE
8
0
10
127.193010
20
55.557100
11
127.468206
21
53.482807
0
LINE
8
0
10
127.468206
20
53.482807
11
128.258111
21
51.582105
0
LINE
8
0
10
128.258111
20
51.582105
11
129.509216
21
49.947677
0
LINE
8
0
10
129.509216
20
49.947677
11
131.168010
21
48.672207
0
LINE
8
0
10
131.168010
20
48.672207
11
133.101997
21
47.873384
0
LINE
8
0
10
133.101997
20
47.873384
11
135.143005
21
47.607110
0
LINE
8
0
10
135.143005
20
47.607110
11
137.184013
21
47.873384
0
LINE
8
0
10
137.184013
20
47.873384
11
139.118000
21
48.672207
0
LINE
8
0
10
139.118000
20
48.672207
11
140.776794
21
49.947677
0
LINE
8
0
10
140.776794
20
49.947677
11
142.027898
21
51.582105
0
LINE
8
0
10
142.027898
20
51.582105
11
142.817802
21
53.482807
0
LINE
8
0
10
142.817802
20
53.482807
11
143.092995
21
55.557100
0
LINE
8
0
10
143.092995
20
55.557100
11
143.093000
21
55.557100
0
LINE
8
0
10
148.093000
20
55.557100
11
147.979116
21
57.272452
0
LINE
8
0
10
147.979116
20
57.272452
11
147.644730
21
58.935984
0
LINE
8
0
10
147.644730
20
58.935984
11
147.100735
21
60.528824
0
LINE
8
0
10
147.100735
20
60.528824
11
146.358029
21
62.032100
0
LINE
8
0
10
146.358029
20
62.032100
11
145.427507
21
63.426941
0
LINE
8
0
10
145.427507
20
63.426941
11
144.320064
21
64.694474
0
LINE
8
0
10
144.320064
20
64.694474
11
143.046596
21
65.815827
0
LINE
8
0
10
143.046596
20
65.815827
11
141.618000
21
66.772129
0
LINE
8
0
10
141.618000
20
66.772129
11
140.075520
21
67.531179
0
LINE
8
0
10
140.075520
20
67.531179
11
138.467666
21
68.073357
0
LINE
8
0
10
138.467666
20
68.073357
11
136.816229
21
68.398664
0
LINE
8
0
10
136.816229
20
68.398664
11
135.143000
21
68.507100
0
LINE
8
0
10
135.143000
20
68.507100
11
133.469771
21
68.398664
0
LINE
8
0
10
133.469771
20
68.398664
11
131.818334
21
68.073357
0
LINE
8
0
10
131.818334
20
68.073357
11
130.210480
21
67.531179
0
LINE
8
0
10
130.210480
20
67.531179
11
128.668000
21
66.772129
0
LINE
8
0
10
128.668000
20
66.772129
11
127.239404
21
65.815827
0
LINE
8
0
10
127.239404
20
65.815827
11
125.965936
21
64.694474
0
LINE
8
0
10
125.965936
20
64.694474
11
124.858493
21
63.426941
0
LINE
8
0
10
124.858493
20
63.426941
11
123.927971
21
62.032100
0
LINE
8
0
10
123.927971
20
62.032100
11
123.185265
21
60.528824
0
LINE
8
0
10
123.185265
20
60.528824
11
122.641270
21
58.935984
0
LINE
8
0
10
122.641270
20
58.935984
11
122.306884
21
57.272452
0
LINE
8
0
10
122.306884
20
57.272452
11
122.193000
21
55.557100
0
LINE
8
0
10
122.193000
20
55.557100
11
122.306884
21
53.841748
0
LINE
8
0
10
122.306884
20
53.841748
11
122.641270
21
52.178216
0
LINE
8
0
10
122.641270
20
52.178216
11
123.185265
21
50.585376
0
LINE
8
0
10
123.185265
20
50.585376
11
123.927971
21
49.082100
0
LINE
8
0
10
123.927971
20
49.082100
11
124.858493
21
47.687259
0
LINE
8
0
10
124.858493
20
47.687259
11
125.965936
21
46.419726
0
LINE
8
0
10
125.965936
20
46.419726
11
127.239404
21
45.298373
0
LINE
8
0
10
127.239404
20
45.298373
11
128.668000
21
44.342071
0
LINE
8
0
10
128.668000
20
44.342071
11
130.210480
21
43.583021
0
LINE
8
0
10
130.210480
20
43.583021
11
131.818334
21
43.040843
0
LINE
8
0
10
131.818334
20
43.040843
11
133.469771
21
42.715536
0
LINE
8
0
10
133.469771
20
42.715536
11
135.143000
21
42.607100
0
LINE
8
0
10
135.143000
20
42.607100
11
136.816229
21
42.715536
0
LINE
8
0
10
136.816229
20
42.715536
11
138.467666
21
43.040843
0
LINE
8
0
10
138.467666
20
43.040843
11
140.075520
21
43.583021
0
LINE
8
0
10
140.075520
20
43.583021
11
141.618000
21
44.342071
0
LINE
8
0
10
141.618000
20
44.342071
11
143.046596
21
45.298373
0
LINE
8
0
10
143.046596
20
45.298373
11
144.320064
21
46.419726
0
LINE
8
0
10
144.320064
20
46.419726
11
145.427507
21
47.687259
0
LINE
8
0
10
145.427507
20
47.687259
11
146.358029
21
49.082100
0
LINE
8
0
10
146.358029
20
49.082100
11
147.100735
21
50.585376
0
LINE
8
0
10
147.100735
20
50.585376
11
147.644730
21
52.178216
0
LINE
8
0
10
147.644730
20
52.178216
11
147.979116
21
53.841748
0
LINE
8
0
10
147.979116
20
53.841748
11
148.093000
21
55.557100
0
LINE
8
0
10
148.093000
20
55.557100
11
148.093000
21
55.557100
0
LINE
8
0
10
79.246200
20
60.394700
11
78.971002
21
62.468993
0
LINE
8
0
10
78.971002
20
62.468993
11
78.181095
21
64.369695
0
LINE
8
0
10
78.181095
20
64.369695
11
76.929989
21
66.004123
0
LINE
8
0
10
76.929989
20
66.004123
11
75.271195
21
67.279593
0
LINE
8
0
10
75.271195
20
67.279593
11
73.337208
21
68.078416
0
LINE
8
0
10
73.337208
20
68.078416
11
71.296200
21
68.344690
0
LINE
8
0
10
71.296200
20
68.344690
11
69.255192
21
68.078416
0
LINE
8
0
10
69.255192
20
68.078416
11
67.321205
21
67.279593
0
LINE
8
0
10
67.321205
20
67.279593
11
65.662411
21
66.004123
0
LINE
8
0
10
65.662411
20
66.004123
11
64.411307
21
64.369695
0
LINE
8
0
10
64.411307
20
64.369695
11
63.621403
21
62.468993
0
LINE
8
0
10
63.621403
20
62.468993
11
63.346210
21
60.394700
0
LINE
8
0
10
63.346210
20
60.394700
11
63.621406
21
58.320407
0
LINE
8
0
10
63.621406
20
58.320407
11
64.411311
21
56.419705
0
LINE
8
0
10
64.411311
20
56.419705
11
65.662416
21
54.785277
0
LINE
8
0
10
65.662416
20
54.785277
11
67.321210
21
53.509807
0
LINE
8
0
10
67.321210
20
53.509807
11
69.255197
21
52.710984
0
LINE
8
0
10
69.255197
20
52.710984
11
71.296205
21
52.444710
0
LINE
8
0
10
71.296205
20
52.444710
11
73.337213
21
52.710984
0
LINE
8
0
10
73.337213
20
52.710984
11
75.271200
21
53.509807
0
LINE
8
0
10
75.271200
20
53.509807
11
76.929994
21
54.785277
0
LINE
8
0
10
76.929994
20
54.785277
11
78.181098
21
56.419705
0
LINE
8
0
10
78.181098
20
56.419705
11
78.971002
21
58.320407
0
LINE
8
0
10
78.971002
20
58.320407
11
79.246195
21
60.394700
0
LINE
8
0
10
79.246195
20
60.394700
11
79.246200
21
60.394700
0
LINE
8
0
10
79.246200
20
60.394700
11
78.971002
21
62.468993
0
LINE
8
0
10
78.971002
20
62.468993
11
78.181095
21
64.369695
0
LINE
8
0
10
78.181095
20
64.369695
11
76.929989
21
66.004123
0
LINE
8
0
10
76.929989
20
66.004123
11
75.271195
21
67.279593
0
LINE
8
0
10
75.271195
20
67.279593
11
73.337208
21
68.078416
0
LINE
8
0
10
73.337208
20
68.078416
11
71.296200
21
68.344690
0
LINE
8
0
10
71.296200
20
68.344690
11
69.255192
21
68.078416
0
LINE
8
0
10
69.255192
20
68.078416
11
67.321205
21
67.279593
0
LINE
8
0
10
67.321205
20
67.279593
11
65.662411
21
66.004123
0
LINE
8
0
10
65.662411
20
66.004123
11
64.411307
21
64.369695
0
LINE
8
0
10
64.411307
20
64.369695
11
63.621403
21
62.468993
0
LINE
8
0
10
63.621403
20
62.468993
11
63.346210
21
60.394700
0
LINE
8
0
10
63.346210
20
60.394700
11
63.621406
21
58.320407
0
LINE
8
0
10
63.621406
20
58.320407
11
64.411311
21
56.419705
0
LINE
8
0
10
64.411311
20
56.419705
11
65.662416
21
54.785277
0
LINE
8
0
10
65.662416
20
54.785277
11
67.321210
21
53.509807
0
LINE
8
0
10
67.321210
20
53.509807
11
69.255197
21
52.710984
0
LINE
8
0
10
69.255197
20
52.710984
11
71.296205
21
52.444710
0
LINE
8
0
10
71.296205
20
52.444710
11
73.337213
21
52.710984
0
LINE
8
0
10
73.337213
20
52.710984
11
75.271200
21
53.509807
0
LINE
8
0
10
75.271200
20
53.509807
11
76.929994
21
54.785277
0
LINE
8
0
10
76.929994
20
54.785277
11
78.181098
21
56.419705
0
LINE
8
0
10
78.181098
20
56.419705
11
78.971002
21
58.320407
0
LINE
8
0
10
78.971002
20
58.320407
11
79.246195
21
60.394700
0
LINE
8
0
10
79.246195
20
60.394700
11
79.246200
21
60.394700
0
LINE
8
0
10
84.246200
20
60.394700
11
84.132316
21
62.110052
0
LINE
8
0
10
84.132316
20
62.110052
11
83.797930
21
63.773584
0
LINE
8
0
10
83.797930
20
63.773584
11
83.253935
21
65.366424
0
LINE
8
0
10
83.253935
20
65.366424
11
82.511229
21
66.869700
0
LINE
8
0
10
82.511229
20
66.869700
11
81.580707
21
68.264541
0
LINE
8
0
10
81.580707
20
68.264541
11
80.473264
21
69.532074
0
LINE
8
0
10
80.473264
20
69.532074
11
79.199796
21
70.653427
0
LINE
8
0
10
79.199796
20
70.653427
11
77.771200
21
71.609729
0
LINE
8
0
10
77.771200
20
71.609729
11
76.228720
21
72.368779
0
LINE
8
0
10
76.228720
20
72.368779
11
74.620866
21
72.910957
0
LINE
8
0
10
74.620866
20
72.910957
11
72.969429
21
73.236264
0
LINE
8
0
10
72.969429
20
73.236264
11
71.296200
21
73.344700
0
LINE
8
0
10
71.296200
20
73.344700
11
69.622971
21
73.236264
0
LINE
8
0
10
69.622971
20
73.236264
11
67.971534
21
72.910957
0
LINE
8
0
10
67.971534
20
72.910957
11
66.363680
21
72.368779
0
LINE
8
0
10
66.363680
20
72.368779
11
64.821200
21
71.609729
0
LINE
8
0
10
64.821200
20
71.609729
11
63.392604
21
70.653427
0
LINE
8
0
10
63.392604
20
70.653427
11
62.119136
21
69.532074
0
LINE
8
0
10
62.119136
20
69.532074
11
61.011693
21
68.264541
0
LINE
8
0
10
61.011693
20
68.264541
11
60.081171
21
66.869700
0
LINE
8
0
10
60.081171
20
66.869700
11
59.338465
21
65.366424
0
LINE
8
0
10
59.338465
20
65.366424
11
58.794470
21
63.773584
0
LINE
8
0
10
58.794470
20
63.773584
11
58.460084
21
62.110052
0
LINE
8
0
10
58.460084
20
62.110052
11
58.346200
21
60.394700
0
LINE
8
0
10
58.346200
20
60.394700
11
58.460084
21
58.679348
0
LINE
8
0
10
58.460084
20
58.679348
11
58.794470
21
57.015816
0
LINE
8
0
10
58.794470
20
57.015816
11
59.338465
21
55.422976
0
LINE
8
0
10
59.338465
20
55.422976
11
60.081171
21
53.919700
0
LINE
8
0
10
60.081171
20
53.919700
11
61.011693
21
52.524859
0
LINE
8
0
10
61.011693
20
52.524859
11
62.119136
21
51.257326
0
LINE
8
0
10
62.119136
20
51.257326
11
63.392604
21
50.135973
0
LINE
8
0
10
63.392604
20
50.135973
11
64.821200
21
49.179671
0
LINE
8
0
10
64.821200
20
49.179671
11
66.363680
21
48.420621
0
LINE
8
0
10
66.363680
20
48.420621
11
67.971534
21
47.878443
0
LINE
8
0
10
67.971534
20
47.878443
11
69.622971
21
47.553136
0
LINE
8
0
10
69.622971
20
47.553136
11
71.296200
21
47.444700
0
LINE
8
0
10
71.296200
20
47.444700
11
72.969429
21
47.553136
0
LINE
8
0
10
72.969429
20
47.553136
11
74.620866
21
47.878443
0
LINE
8
0
10
74.620866
20
47.878443
11
76.228720
21
48.420621
0
LINE
8
0
10
76.228720
20
48.420621
11
77.771200
21
49.179671
0
LINE
8
0
10
77.771200
20
49.179671
11
79.199796
21
50.135973
0
LINE
8
0
10
79.199796
20
50.135973
11
80.473264
21
51.257326
0
LINE
8
0
10
80.473264
20
51.257326
11
81.580707
21
52.524859
0
LINE
8
0
10
81.580707
20
52.524859
11
82.511229
21
53.919700
0
LINE
8
0
10
82.511229
20
53.919700
11
83.253935
21
55.422976
0
LINE
8
0
10
83.253935
20
55.422976
11
83.797930
21
57.015816
0
LINE
8
0
10
83.797930
20
57.015816
11
84.132316
21
58.679348
0
LINE
8
0
10
84.132316
20
58.679348
11
84.246200
21
60.394700
0
LINE
8
0
10
84.246200
20
60.394700
11
84.246200
21
60.394700
0
LINE
8
0
10
142.778000
20
23.605000
11
142.502802
21
25.679293
0
LINE
8
0
10
142.502802
20
25.679293
11
141.712895
21
27.579995
0
LINE
8
0
10
141.712895
20
27.579995
11
140.461789
21
29.214423
0
LINE
8
0
10
140.461789
20
29.214423
11
138.802995
21
30.489893
0
LINE
8
0
10
138.802995
20
30.489893
11
136.869008
21
31.288716
0
LINE
8
0
10
136.869008
20
31.288716
11
134.828000
21
31.554990
0
LINE
8
0
10
134.828000
20
31.554990
11
132.786992
21
31.288716
0
LINE
8
0
10
132.786992
20
31.288716
11
130.853005
21
30.489893
0
LINE
8
0
10
130.853005
20
30.489893
11
129.194211
21
29.214423
0
LINE
8
0
10
129.194211
20
29.214423
11
127.943107
21
27.579995
0
LINE
8
0
10
127.943107
20
27.579995
11
127.153203
21
25.679293
0
LINE
8
0
10
127.153203
20
25.679293
11
126.878010
21
23.605000
0
LINE
8
0
10
126.878010
20
23.605000
11
127.153206
21
21.530707
0
LINE
8
0
10
127.153206
20
21.530707
11
127.943111
21
19.630005
0
LINE
8
0
10
127.943111
20
19.630005
11
129.194216
21
17.995577
0
LINE
8
0
10
129.194216
20
17.995577
11
130.853010
21
16.720107
0
LINE
8
0
10
130.853010
20
16.720107
11
132.786997
21
15.921284
0
LINE
8
0
10
132.786997
20
15.921284
11
134.828005
21
15.655010
0
LINE
8
0
10
134.828005
20
15.655010
11
136.869013
21
15.921284
0
LINE
8
0
10
136.869013
20
15.921284
11
138.803000
21
16.720107
0
LINE
8
0
10
138.803000
20
16.720107
11
140.461794
21
17.995577
0
LINE
8
0
10
140.461794
20
17.995577
11
141.712898
21
19.630005
0
LINE
8
0
10
141.712898
20
19.630005
11
142.502802
21
21.530707
0
LINE
8
0
10
142.502802
20
21.530707
11
142.777995
21
23.605000
0
LINE
8
0
10
142.777995
20
23.605000
11
142.778000
21
23.605000
0
LINE
8
0
10
142.778000
20
23.605000
11
142.502802
21
25.679293
0
LINE
8
0
10
142.502802
20
25.679293
11
141.712895
21
27.579995
0
LINE
8
0
10
141.712895
20
27.579995
11
140.461789
21
29.214423
0
LINE
8
0
10
140.461789
20
29.214423
11
138.802995
21
30.489893
0
LINE
8
0
10
138.802995
20
30.489893
11
136.869008
21
31.288716
0
LINE
8
0
10
136.869008
20
31.288716
11
134.828000
21
31.554990
0
LINE
8
0
10
134.828000
20
31.554990
11
132.786992
21
31.288716
0
LINE
8
0
10
132.786992
20
31.288716
11
130.853005
21
30.489893
0
LINE
8
0
10
130.853005
20
30.489893
11
129.194211
21
29.214423
0
LINE
8
0
10
129.194211
20
29.214423
11
127.943107
21
27.579995
0
LINE
8
0
10
127.943107
20
27.579995
11
127.153203
21
25.679293
0
LINE
8
0
10
127.153203
20
25.679293
11
126.878010
21
23.605000
0
LINE
8
0
10
126.878010
20
23.605000
11
127.153206
21
21.530707
0
LINE
8
0
10
127.153206
20
21.530707
11
127.943111
21
19.630005
0
LINE
8
0
10
127.943111
20
19.630005
11
129.194216
21
17.995577
0
LINE
8
0
10
129.194216
20
17.995577
11
130.853010
21
16.720107
0
LINE
8
0
10
130.853010
20
16.720107
11
132.786997
21
15.921284
0
LINE
8
0
10
132.786997
20
15.921284
11
134.828005
21
15.655010
0
LINE
8
0
10
134.828005
20
15.655010
11
136.869013
21
15.921284
0
LINE
8
0
10
136.869013
20
15.921284
11
138.803000
21
16.720107
0
LINE
8
0
10
138.803000
20
16.720107
11
140.461794
21
17.995577
0
LINE
8
0
10
140.461794
20
17.995577
11
141.712898
21
19.630005
0
LINE
8
0
10
141.712898
20
19.630005
11
142.502802
21
21.530707
0
LINE
8
0
10
142.502802
20
21.530707
11
142.777995
21
23.605000
0
LINE
8
0
10
142.777995
20
23.605000
11
142.778000
21
23.605000
0
LINE
8
0
10
147.778000
20
23.605000
11
147.664116
21
25.320352
0
LINE
8
0
10
147.664116
20
25.320352
11
147.329730
21
26.983884
0
LINE
8
0
10
147.329730
20
26.983884
11
146.785735
21
28.576724
0
LINE
8
0
10
146.785735
20
28.576724
11
146.043029
21
30.080000
0
LINE
8
0
10
146.043029
20
30.080000
11
145.112507
21
31.474841
0
LINE
8
0
10
145.112507
20
31.474841
11
144.005064
21
32.742374
0
LINE
8
0
10
144.005064
20
32.742374
11
142.731596
21
33.863727
0
LINE
8
0
10
142.731596
20
33.863727
11
141.303000
21
34.820029
0
LINE
8
0
10
141.303000
20
34.820029
11
139.760520
21
35.579079
0
LINE
8
0
10
139.760520
20
35.579079
11
138.152666
21
36.121257
0
LINE
8
0
10
138.152666
20
36.121257
11
136.501229
21
36.446564
0
LINE
8
0
10
136.501229
20
36.446564
11
134.828000
21
36.555000
0
LINE
8
0
10
134.828000
20
36.555000
11
133.154771
21
36.446564
0
LINE
8
0
10
133.154771
20
36.446564
11
131.503334
21
36.121257
0
LINE
8
0
10
131.503334
20
36.121257
11
129.895480
21
35.579079
0
LINE
8
0
10
129.895480
20
35.579079
11
128.353000
21
34.820029
0
LINE
8
0
10
128.353000
20
34.820029
11
126.924404
21
33.863727
0
LINE
8
0
10
126.924404
20
33.863727
11
125.650936
21
32.742374
0
LINE
8
0
10
125.650936
20
32.742374
11
124.543493
21
31.474841
0
LINE
8
0
10
124.543493
20
31.474841
11
123.612971
21
30.080000
0
LINE
8
0
10
123.612971
20
30.080000
11
122.870265
21
28.576724
0
LINE
8
0
10
122.870265
20
28.576724
11
122.326270
21
26.983884
0
LINE
8
0
10
122.326270
20
26.983884
11
121.991884
21
25.320352
0
LINE
8
0
10
121.991884
20
25.320352
11
121.878000
21
23.605000
0
LINE
8
0
10
121.878000
20
23.605000
11
121.991884
21
21.889648
0
LINE
8
0
10
121.991884
20
21.889648
11
122.326270
21
20.226116
0
LINE
8
0
10
122.326270
20
20.226116
11
122.870265
21
18.633276
0
LINE
8
0
10
122.870265
20
18.633276
11
123.612971
21
17.130000
0
LINE
8
0
10
123.612971
20
17.130000
11
124.543493
21
15.735159
0
LINE
8
0
10
124.543493
20
15.735159
11
125.650936
21
14.467626
0
LINE
8
0
10
125.650936
20
14.467626
11
126.924404
21
13.346273
0
LINE
8
0
10
126.924404
20
13.346273
11
128.353000
21
12.389971
0
LINE
8
0
10
128.353000
20
12.389971
11
129.895480
21
11.630921
0
LINE
8
0
10
129.895480
20
11.630921
11
131.503334
21
11.088743
0
LINE
8
0
10
131.503334
20
11.088743
11
133.154771
21
10.763436
0
LINE
8
0
10
133.154771
20
10.763436
11
134.828000
21
10.655000
0
LINE
8
0
10
134.828000
20
10.655000
11
136.501229
21
10.763436
0
LINE
8
0
10
136.501229
20
10.763436
11
138.152666
21
11.088743
0
LINE
8
0
10
138.152666
20
11.088743
11
139.760520
21
11.630921
0
LINE
8
0
10
139.760520
20
11.630921
11
141.303000
21
12.389971
0
LINE
8
0
10
141.303000
20
12.389971
11
142.731596
21
13.346273
0
LINE
8
0
10
142.731596
20
13.346273
11
144.005064
21
14.467626
0
LINE
8
0
10
144.005064
20
14.467626
11
145.112507
21
15.735159
0
LINE
8
0
10
145.112507
20
15.735159
11
146.043029
21
17.130000
0
LINE
8
0
10
146.043029
20
17.130000
11
146.785735
21
18.633276
0
LINE
8
0
10
146.785735
20
18.633276
11
147.329730
21
20.226116
0
LINE
8
0
10
147.329730
20
20.226116
11
147.664116
21
21.889648
0
LINE
8
0
10
147.664116
20
21.889648
11
147.778000
21
23.605000
0
LINE
8
0
10
147.778000
20
23.605000
11
147.778000
21
23.605000
0
LINE
8
0
10
78.812600
20
26.850300
11
78.537402
21
28.924593
0
LINE
8
0
10
78.537402
20
28.924593
11
77.747495
21
30.825295
0
LINE
8
0
10
77.747495
20
30.825295
11
76.496389
21
32.459723
0
LINE
8
0
10
76.496389
20
32.459723
11
74.837595
21
33.735193
0
LINE
8
0
10
74.837595
20
33.735193
11
72.903608
21
34.534016
0
LINE
8
0
10
72.903608
20
34.534016
11
70.862600
21
34.800290
0
LINE
8
0
10
70.862600
20
34.800290
11
68.821592
21
34.534016
0
LINE
8
0
10
68.821592
20
34.534016
11
66.887605
21
33.735193
0
LINE
8
0
10
66.887605
20
33.735193
11
65.228811
21
32.459723
0
LINE
8
0
10
65.228811
20
32.459723
11
63.977707
21
30.825295
0
LINE
8
0
10
63.977707
20
30.825295
11
63.187803
21
28.924593
0
LINE
8
0
10
63.187803
20
28.924593
11
62.912610
21
26.850300
0
LINE
8
0
10
62.912610
20
26.850300
11
63.187806
21
24.776007
0
LINE
8
0
10
63.187806
20
24.776007
11
63.977711
21
22.875305
0
LINE
8
0
10
63.977711
20
22.875305
11
65.228816
21
21.240877
0
LINE
8
0
10
65.228816
20
21.240877
11
66.887610
21
19.965407
0
LINE
8
0
10
66.887610
20
19.965407
11
68.821597
21
19.166584
0
LINE
8
0
10
68.821597
20
19.166584
11
70.862605
21
18.900310
0
LINE
8
0
10
70.862605
20
18.900310
11
72.903613
21
19.166584
0
LINE
8
0
10
72.903613
20
19.166584
11
74.837600
21
19.965407
0
LINE
8
0
10
74.837600
20
19.965407
11
76.496394
21
21.240877
0
LINE
8
0
10
76.496394
20
21.240877
11
77.747498
21
22.875305
0
LINE
8
0
10
77.747498
20
22.875305
11
78.537402
21
24.776007
0
LINE
8
0
10
78.537402
20
24.776007
11
78.812595
21
26.850300
0
LINE
8
0
10
78.812595
20
26.850300
11
78.812600
21
26.850300
0
LINE
8
0
10
78.812600
20
26.850300
11
78.537402
21
28.924593
0
LINE
8
0
10
78.537402
20
28.924593
11
77.747495
21
30.825295
0
LINE
8
0
10
77.747495
20
30.825295
11
76.496389
21
32.459723
0
LINE
8
0
10
76.496389
20
32.459723
11
74.837595
21
33.735193
0
LINE
8
0
10
74.837595
20
33.735193
11
72.903608
21
34.534016
0
LINE
8
0
10
72.903608
20
34.534016
11
70.862600
21
34.800290
0
LINE
8
0
10
70.862600
20
34.800290
11
68.821592
21
34.534016
0
LINE
8
0
10
68.821592
20
34.534016
11
66.887605
21
33.735193
0
LINE
8
0
10
66.887605
20
33.735193
11
65.228811
21
32.459723
0
LINE
8
0
10
65.228811
20
32.459723
11
63.977707
21
30.825295
0
LINE
8
0
10
63.977707
20
30.825295
11
63.187803
21
28.924593
0
LINE
8
0
10
63.187803
20
28.924593
11
62.912610
21
26.850300
0
LINE
8
0
10
62.912610
20
26.850300
11
63.187806
21
24.776007
0
LINE
8
0
10
63.187806
20
24.776007
11
63.977711
21
22.875305
0
LINE
8
0
10
63.977711
20
22.875305
11
65.228816
21
21.240877
0
LINE
8
0
10
65.228816
20
21.240877
11
66.887610
21
19.965407
0
LINE
8
0
10
66.887610
20
19.965407
11
68.821597
21
19.166584
0
LINE
8
0
10
68.821597
20
19.166584
11
70.862605
21
18.900310
0
LINE
8
0
10
70.862605
20
18.900310
11
72.903613
21
19.166584
0
LINE
8
0
10
72.903613
20
19.166584
11
74.837600
21
19.965407
0
LINE
8
0
10
74.837600
20
19.965407
11
76.496394
21
21.240877
0
LINE
8
0
10
76.496394
20
21.240877
11
77.747498
21
22.875305
0
LINE
8
0
10
77.747498
20
22.875305
11
78.537402
21
24.776007
0
LINE
8
0
10
78.537402
20
24.776007
11
78.812595
21
26.850300
0
LINE
8
0
10
78.812595
20
26.850300
11
78.812600
21
26.850300
0
LINE
8
0
10
83.812600
20
26.850300
11
83.549502
21
29.460177
0
LINE
8
0
10
83.549502
20
29.460177
11
82.794925
21
31.891024
0
LINE
8
0
10
82.794925
20
31.891024
11
81.600943
21
34.090768
0
LINE
8
0
10
81.600943
20
34.090768
11
80.019633
21
36.007333
0
LINE
8
0
10
80.019633
20
36.007333
11
78.103068
21
37.588643
0
LINE
8
0
10
78.103068
20
37.588643
11
75.903324
21
38.782624
0
LINE
8
0
10
75.903324
20
38.782624
11
73.472477
21
39.537202
0
LINE
8
0
10
73.472477
20
39.537202
11
70.862600
21
39.800300
0
LINE
8
0
10
70.862600
20
39.800300
11
68.252723
21
39.537202
0
LINE
8
0
10
68.252723
20
39.537202
11
65.821876
21
38.782624
0
LINE
8
0
10
65.821876
20
38.782624
11
63.622132
21
37.588643
0
LINE
8
0
10
63.622132
20
37.588643
11
61.705567
21
36.007333
0
LINE
8
0
10
61.705567
20
36.007333
11
60.124257
21
34.090768
0
LINE
8
0
10
60.124257
20
34.090768
11
58.930275
21
31.891024
0
LINE
8
0
10
58.930275
20
31.891024
11
58.175698
21
29.460177
0
LINE
8
0
10
58.175698
20
29.460177
11
57.912600
21
26.850300
0
LINE
8
0
10
57.912600
20
26.850300
11
58.026484
21
25.134948
0
LINE
8
0
10
58.026484
20
25.134948
11
58.360870
21
23.471416
0
LINE
8
0
10
58.360870
20
23.471416
11
58.904865
21
21.878576
0
LINE
8
0
10
58.904865
20
21.878576
11
59.647571
21
20.375300
0
LINE
8
0
10
59.647571
20
20.375300
11
60.578093
21
18.980459
0
LINE
8
0
10
60.578093
20
18.980459
11
61.685536
21
17.712926
0
LINE
8
0
10
61.685536
20
17.712926
11
62.959004
21
16.591573
0
LINE
8
0
10
62.959004
20
16.591573
11
64.387600
21
15.635271
0
LINE
8
0
10
64.387600
20
15.635271
11
65.930080
21
14.876221
0
LINE
8
0
10
65.930080
20
14.876221
11
67.537934
21
14.334043
0
LINE
8
0
10
67.537934
20
14.334043
11
69.189371
21
14.008736
0
LINE
8
0
10
69.189371
20
14.008736
11
70.862600
21
13.900300
0
LINE
8
0
10
70.862600
20
13.900300
11
72.535829
21
14.008736
0
LINE
8
0
10
72.535829
20
14.008736
11
74.187266
21
14.334043
0
LINE
8
0
10
74.187266
20
14.334043
11
75.795120
21
14.876221
0
LINE
8
0
10
75.795120
20
14.876221
11
77.337600
21
15.635271
0
LINE
8
0
10
77.337600
20
15.635271
11
78.766196
21
16.591573
0
LINE
8
0
10
78.766196
20
16.591573
11
80.039664
21
17.712926
0
LINE
8
0
10
80.039664
20
17.712926
11
81.147107
21
18.980459
0
LINE
8
0
10
81.147107
20
18.980459
11
82.077629
21
20.375300
0
LINE
8
0
10
82.077629
20
20.375300
11
82.820335
21
21.878576
0
LINE
8
0
10
82.820335
20
21.878576
11
83.364330
21
23.471416
0
LINE
8
0
10
83.364330
20
23.471416
11
83.698716
21
25.134948
0
LINE
8
0
10
83.698716
20
25.134948
11
83.812600
21
26.850300
0
LINE
8
0
10
83.812600
20
26.850300
11
83.812600
21
26.850300
 0 
ENDSEC
 0 
EOF